<?xml version="1.0" encoding="utf-8"?>
<!-- Generator: Adobe Illustrator 25.2.1, SVG Export Plug-In . SVG Version: 6.00 Build 0)  -->
<svg version="1.1" id="e0b35d3b-637f-4cd2-a9fd-b6e76c92ec56"
	 xmlns="http://www.w3.org/2000/svg" xmlns:xlink="http://www.w3.org/1999/xlink" x="0px" y="0px" viewBox="0 0 486.9 680.2"
	 style="enable-background:new 0 0 486.9 680.2;" xml:space="preserve">
<style type="text/css">
	.st0{fill:#2F2E41;}
	.st1{fill:#F2F2F2;}
	.st2{fill:#3F3D56;}
	.st3{fill:#626277;}
	.st4{fill:#E45447;}
</style>
<g>
	<polygon class="st0" points="404,643 26.6,507.4 94,319.8 329.1,262.2 471.6,455.4 	"/>
	<path class="st1" d="M358.3,605.8l-282-107.5c73.1-98.2,105.9-167.3,105.9-276.2l282,107.5C398.8,422.8,371.4,492.7,358.3,605.8z"
		/>
	
		<rect x="302.6" y="241.6" transform="matrix(0.3562 -0.9344 0.9344 0.3562 -101.6772 492.1017)" class="st2" width="7.4" height="156.4"/>
	
		<rect x="292.2" y="269" transform="matrix(0.3562 -0.9344 0.9344 0.3562 -133.9283 500.0077)" class="st2" width="7.4" height="156.4"/>
	
		<rect x="281.9" y="296.2" transform="matrix(0.3562 -0.9344 0.9344 0.3562 -165.9605 507.8601)" class="st2" width="7.4" height="156.4"/>
	
		<rect x="271.4" y="323.3" transform="matrix(0.3562 -0.9344 0.9344 0.3562 -198.0462 515.4935)" class="st2" width="7.4" height="156.4"/>
	
		<rect x="261.1" y="350.4" transform="matrix(0.3562 -0.9344 0.9344 0.3562 -230.0786 523.346)" class="st2" width="7.4" height="156.4"/>
	
		<rect x="250.8" y="377.6" transform="matrix(0.3562 -0.9344 0.9344 0.3562 -262.1107 531.1984)" class="st2" width="7.4" height="156.4"/>
	
		<rect x="240.4" y="404.8" transform="matrix(0.3562 -0.9344 0.9344 0.3562 -294.1428 539.0507)" class="st2" width="7.4" height="156.4"/>
	
		<rect x="230.1" y="432" transform="matrix(0.3562 -0.9344 0.9344 0.3562 -326.1753 546.9033)" class="st2" width="7.4" height="156.4"/>
	<polygon class="st3" points="395.5,667.2 17.9,531.7 94,319.8 253.4,469.3 471.6,455.4 	"/>
	<polygon class="st4" points="203.5,600.4 15.3,532.9 61.2,405.3 65,406.7 20.5,530.5 204.9,596.9 	"/>
	
		<rect x="93.3" y="436.6" transform="matrix(0.338 -0.9411 0.9411 0.338 -368.9305 407.2674)" class="st4" width="23.4" height="58.6"/>
	
		<ellipse transform="matrix(0.3562 -0.9344 0.9344 0.3562 -51.3279 487.5757)" class="st4" cx="328.2" cy="281" rx="17.9" ry="49.7"/>
	<path class="st4" d="M415.1,16.4c-39.7-12.3-82.1,9.9-94.6,49.7S342,251.7,342,251.7S452.5,150.7,464.8,111
		C477.1,71,454.9,28.7,415.1,16.4z M382,122.5c-18.9-6-29.4-25.8-23.4-44.7c6-18.9,25.8-29.4,44.7-23.4c18.9,6,29.4,25.8,23.4,44.7
		C420.9,117.9,400.8,128.5,382,122.5L382,122.5z"/>
</g>
</svg>
