<?xml version="1.0" encoding="utf-8"?>
<!-- Generator: Adobe Illustrator 25.2.1, SVG Export Plug-In . SVG Version: 6.00 Build 0)  -->
<svg version="1.1" id="e0b35d3b-637f-4cd2-a9fd-b6e76c92ec56"
	 xmlns="http://www.w3.org/2000/svg" xmlns:xlink="http://www.w3.org/1999/xlink" x="0px" y="0px" viewBox="0 0 912.9 680.2"
	 style="enable-background:new 0 0 912.9 680.2;" xml:space="preserve">
<style type="text/css">
	.st0{fill:#3F3D56;}
	.st1{fill:#FFB9B9;}
	.st2{fill:#CFCCE0;}
	.st3{fill:#1C1C2B;}
	.st4{fill:#101019;}
	.st5{fill:#2F2E41;}
	.st6{fill:#F2F2F2;}
	.st7{fill:#FFFFFF;}
	.st8{fill:#E45447;}
	.st9{fill:#626277;}
</style>
<rect x="102" y="641.3" class="st0" width="556.1" height="2.4"/>
<path class="st1" d="M396.9,316.4c0,0-11.8,53.1,11.8,43.7s9.4-46,9.4-46L396.9,316.4z"/>
<path class="st1" d="M617.6,334.1c0,0,28.3,34.2,10.6,41.3s-27.1-31.9-24.8-35.4S617.6,334.1,617.6,334.1z"/>
<circle class="st1" cx="550.3" cy="56.7" r="35.4"/>
<polygon class="st1" points="523.8,70.3 519.1,106.9 558,121.1 566.3,79.7 "/>
<path class="st2" d="M545.6,106.3c0,0-20-9.9-24.2-17.9l-8.9,8.5c0,0-63.7-5.9-73.2,26s-1.2,147.5-1.2,147.5s-13,51.9-9.4,53.1
	s47.2,22.4,108.6,10.6c0,0,27.1-4.7,31.9-1.2s-2.4-56.6-2.4-56.6s47.3-106.3,39-119.3S561,116.9,561,116.9l2.4-13
	C563.3,103.9,546.8,111,545.6,106.3z"/>
<path class="st2" d="M448.8,114.6c0,0-21.2,10.6-24.8,27.1c-3.5,16.5-36.6,153.4-33,161.7s2.4,18.9,2.4,18.9l30.7-3.5
	c0,0-5.9-8.3-2.4-11.8s7.1-15.3,4.7-20.1s-4.7,3.5,8.3-11.8S477.2,119.3,448.8,114.6z"/>
<path class="st2" d="M598.7,154.7c0,0,10,0.6,12.4,17.1s6.5,118.6,6.5,118.6s15.3,33,9.4,37.8s-2.4,11.8-2.4,11.8l-21.2,5.9l-46-72
	L598.7,154.7z"/>
<path class="st3" d="M432.3,318.7c0,0-7.1,1.2-7.1,27.1s-13,106.2-4.7,119.2s9.4,129.8,9.4,129.8s22.4,9.4,41.3-21.2l2.4-16.5
	l4.7-80.3l18.9-100.3l26,110.9c0,0-3.5,133.4,9.4,133.4s37.8-10.6,37.8-10.6s5.9-11.8,3.5-17.7s-4.7-4.7-2.4-9.4
	s5.9-127.5,5.9-127.5s-4.7-126.3-10.6-129.8S432.3,318.7,432.3,318.7z"/>
<path class="st4" d="M432.3,590.2l-18.9,20.1c0,0-34.2,31.9-4.7,33s46-18.9,46-21.2s1.2-10.6,9.4-10.6s28.3-20.1,23.6-28.3
	s-18.9-11.8-18.9-11.8L432.3,590.2z"/>
<path class="st4" d="M533.8,616.1c0,0-14.2,28.3-5.9,34.2s10.6,8.3,10.6,8.3s7.1-1.2,5.9,9.4s42.5,16.5,44.8,8.3s1.2-24.8-3.5-29.5
	S566.8,609,566.8,609S551.5,591.4,533.8,616.1z"/>
<path class="st5" d="M586.1,28.3l6.7-0.9c0,0-9.3-17.1-27.3-20.2l6.3-4.3c0,0-11-7.8-25.1,2.2c-7.4,5.3-16.1,11.5-22.5,19.4
	l-6.5-1.6l1.3,6.6l-11,3.7l10,1.3c-1.4,3.1-2.3,6.5-2.7,9.9c-0.4,3.4,0.6,6.8,2.6,9.5l0,0c0,0,11.3-13.8,11.9-16.2l-1.5,6.1
	c0,0,7.4-4,8.3-7.6l2.3,5.1l3.3-6.3L561,46.7l-2-6.3l12.3,4.9l-3.3-7.9c0,0,12.4,11.4,11.3,18.2c-1.1,6.8,1.6,14.2,1.6,14.2
	S599.9,41.3,586.1,28.3z"/>
<rect x="723.9" y="429.5" class="st0" width="189" height="2.3"/>
<rect x="160.9" y="603.7" class="st2" width="45.6" height="45.6"/>
<path class="st0" d="M200.5,643.3h-48v-48h48V643.3z M154.9,640.9h43.2v-43.2h-43.2V640.9z"/>
<rect x="231.8" y="210.2" transform="matrix(0.9327 -0.3607 0.3607 0.9327 -64.5548 104.3332)" class="st6" width="30.9" height="29.8"/>
<path class="st7" d="M261.9,231.3L231.5,243l-11.3-29.3l30.3-11.7L261.9,231.3z M232.5,241l27.3-10.6L249.6,204l-27.3,10.6
	L232.5,241z"/>
<rect x="752" y="519.7" transform="matrix(0.9457 -0.3251 0.3251 0.9457 -132.3324 278.3865)" class="st6" width="29.8" height="30.9"/>
<path class="st7" d="M760.2,549.5l-10.6-30.8l29.7-10.2l10.6,30.8L760.2,549.5z M751.7,519.8l9.5,27.7l26.7-9.2l-9.5-27.7
	L751.7,519.8z"/>
<path class="st8" d="M143.3,399.6c16.9,0.4,30.4,12.6,30.4,12.6s-14,11.7-30.9,11.3s-30.4-12.6-30.4-12.6S126.4,399.3,143.3,399.6z"
	/>
<path class="st8" d="M58.4,341.9c15.3,7.3,32.8,2.3,32.8,2.3s-7.2-16.7-22.5-23.9S35.8,318,35.8,318S43.1,334.7,58.4,341.9z"/>
<path class="st9" d="M59.9,334.7c16.8-1.5,31.6,9.1,31.6,9.1S78.9,357,62.1,358.5s-31.6-9.1-31.6-9.1S43.1,336.2,59.9,334.7z"/>
<path class="st9" d="M121.6,337.6c-1.6,16.8,9,31.6,9,31.6s13.2-12.5,14.8-29.3s-9-31.6-9-31.6S123.2,320.8,121.6,337.6z"/>
<path class="st9" d="M200.9,440.8c-8.8,14.4-5.8,32.4-5.8,32.4s17.4-5.4,26.2-19.9s5.8-32.4,5.8-32.4S209.8,426.4,200.9,440.8z"/>
<path class="st0" d="M175.3,597.6l1.3-0.9c-4.5-6.6-7-14.4-7.1-22.4c0-11.7,5.8-22.5,11.3-33c1-1.9,2.1-3.9,3-5.8
	c4.1-7.9,7.5-16.2,9.9-24.8c8.6-32,0.1-69.8-22.7-101.1c-18.1-24.8-45.1-46.5-82.5-66.3l-0.7,1.4c37.2,19.7,64,41.2,82,65.8
	c22.6,30.9,30.9,68.2,22.4,99.7c-2.4,8.5-5.6,16.7-9.7,24.5c-1,1.9-2,3.9-3,5.8c-5.6,10.6-11.5,21.6-11.5,33.7
	C168,582.7,170.6,590.8,175.3,597.6z"/>
<circle class="st9" cx="14.8" cy="330.8" r="14.8"/>
<polygon class="st9" points="369.5,642.1 220.9,642 222,558.6 295.9,591.8 370.7,560.7 "/>
<rect x="239.2" y="597.5" transform="matrix(1.398263e-02 -0.9999 0.9999 1.398263e-02 -368.2238 843.3831)" class="st8" width="8.7" height="21.7"/>
<polygon class="st8" points="371.2,560.5 296,598.8 221.6,560.5 221.6,558.3 371.2,558.3 "/>
</svg>
