<?xml version="1.0" encoding="utf-8"?>
<!-- Generator: Adobe Illustrator 25.2.1, SVG Export Plug-In . SVG Version: 6.00 Build 0)  -->
<svg version="1.1" id="Layer_1" xmlns="http://www.w3.org/2000/svg" xmlns:xlink="http://www.w3.org/1999/xlink" x="0px" y="0px"
	 viewBox="0 0 1125.6 1137.1" style="enable-background:new 0 0 1125.6 1137.1;" xml:space="preserve">
<style type="text/css">
	.st0{fill:none;stroke:#F9EDED;stroke-width:5;stroke-linecap:round;stroke-linejoin:round;stroke-miterlimit:10;}
	.st1{opacity:0.3;}
	.st2{fill:none;stroke:#F9EDED;stroke-miterlimit:10;}
</style>
<g>
	<g>
		<line class="st0" x1="195.3" y1="111" x2="180.1" y2="96.7"/>
		<line class="st0" x1="180.5" y1="111.5" x2="194.8" y2="96.2"/>
	</g>
	<g>
		<line class="st0" x1="212.8" y1="330.4" x2="197.6" y2="316.1"/>
		<line class="st0" x1="198.1" y1="330.9" x2="212.4" y2="315.7"/>
	</g>
	<g>
		<line class="st0" x1="27.2" y1="453" x2="12" y2="438.7"/>
		<line class="st0" x1="12.5" y1="453.5" x2="26.8" y2="438.3"/>
	</g>
	<g>
		<line class="st0" x1="20.6" y1="90.1" x2="5.3" y2="75.8"/>
		<line class="st0" x1="5.8" y1="90.6" x2="20.1" y2="75.3"/>
	</g>
	<g>
		<line class="st0" x1="563" y1="110.6" x2="547.8" y2="96.3"/>
		<line class="st0" x1="548.2" y1="111.1" x2="562.5" y2="95.8"/>
	</g>
	<g>
		<line class="st0" x1="383.1" y1="188.4" x2="367.8" y2="174.1"/>
		<line class="st0" x1="368.3" y1="188.9" x2="382.6" y2="173.6"/>
	</g>
	<g>
		<line class="st0" x1="457.4" y1="358.2" x2="442.2" y2="343.9"/>
		<line class="st0" x1="442.7" y1="358.7" x2="457" y2="343.5"/>
	</g>
	<g>
		<line class="st0" x1="445.6" y1="496.6" x2="430.3" y2="482.3"/>
		<line class="st0" x1="430.8" y1="497" x2="445.1" y2="481.8"/>
	</g>
	<polygon class="st0" points="308.7,133.9 298.2,115.7 287.7,133.9 277.2,152.1 298.2,152.1 319.2,152 	"/>
	<polygon class="st0" points="273.9,355.9 263.4,337.7 253,355.9 242.5,374.1 263.5,374.1 284.4,374 	"/>
	<polygon class="st0" points="394.3,424.1 383.8,405.9 373.3,424.1 362.8,442.2 383.8,442.2 404.8,442.2 	"/>
	<polygon class="st0" points="463.5,284.6 468.9,264.4 448.7,269.8 428.4,275.3 443.2,290.1 458.1,304.9 	"/>
	<polygon class="st0" points="118.6,49.3 124,29.1 103.7,34.5 83.5,40 98.3,54.8 113.2,69.6 	"/>
	<polygon class="st0" points="104.2,487.3 109.6,467 89.4,472.4 69.1,477.9 84,492.7 98.8,507.5 	"/>
	<polygon class="st0" points="484.7,72 502.9,61.5 484.7,51 466.6,40.5 466.6,61.5 466.6,82.5 	"/>
	<polygon class="st0" points="103.7,281.5 121.9,271 103.7,260.6 85.6,250.1 85.6,271.1 85.6,292 	"/>
	<path class="st0" d="M344.1,247.2c0,8.8-7.1,15.9-15.9,15.9s-15.9-7.1-15.9-15.9c0-8.8,7.1-15.9,15.9-15.9
		C337,231.3,344.1,238.4,344.1,247.2z"/>
	<path class="st0" d="M263.7,69.6c0,8.8-7.1,15.9-15.9,15.9c-8.8,0-15.9-7.1-15.9-15.9s7.1-15.9,15.9-15.9
		C256.6,53.7,263.7,60.8,263.7,69.6z"/>
	<path class="st0" d="M273.9,539.3c0,8.8-7.1,15.9-15.9,15.9c-8.8,0-15.9-7.1-15.9-15.9c0-8.8,7.1-15.9,15.9-15.9
		C266.7,523.3,273.9,530.5,273.9,539.3z"/>
	<path class="st0" d="M316.4,515.5c0-8.8,7.1-15.9,15.9-15.9s15.9,7.1,15.9,15.9"/>
	<path class="st0" d="M189.4,271.1c0-8.8,7.1-15.9,15.9-15.9s15.9,7.1,15.9,15.9"/>
	<path class="st0" d="M22,141.9c0-8.8,7.1-15.9,15.8-15.9s15.8,7.1,15.8,15.9"/>
	<path class="st0" d="M423.1,167.9c-8.8,0-15.9-7.1-15.9-15.8s7.1-15.8,15.9-15.8"/>
	<path class="st0" d="M39.9,539.2c-8.8,0-15.9-7.1-15.9-15.8s7.1-15.8,15.9-15.8"/>
	<path class="st0" d="M210.7,33.1c-8.8,0-15.9-7.1-15.9-15.8s7.1-15.8,15.9-15.8"/>
	<path class="st0" d="M47.9,371.8c0,8.8-7.1,15.9-15.9,15.9s-15.9-7.1-15.9-15.9s7.1-15.9,15.9-15.9S47.9,363,47.9,371.8z"/>
	<path class="st0" d="M538.6,390c0,8.8-7.1,15.9-15.9,15.9c-8.8,0-15.9-7.1-15.9-15.9s7.1-15.9,15.9-15.9
		C531.5,374.1,538.6,381.2,538.6,390z"/>
	<rect x="494.6" y="136.2" class="st0" width="31.7" height="31.7"/>
	<rect x="136.7" y="152.1" class="st0" width="31.7" height="31.7"/>
	<rect x="135.1" y="354.2" class="st0" width="31.7" height="31.7"/>
	<rect x="494.6" y="507.5" class="st0" width="31.7" height="31.7"/>
	<rect x="363.3" y="1.4" class="st0" width="31.7" height="31.7"/>
	<g>
		<path class="st0" d="M317.8,323.3c-6.9,0-5.7-12.3-14.5-12.3"/>
		<path class="st0" d="M346.9,323.3c-6.9,0-5.7-12.3-14.5-12.3"/>
		<path class="st0" d="M317.8,323.3c6.9,0,5.7-12.3,14.5-12.3"/>
		<path class="st0" d="M361.4,311"/>
		<path class="st0" d="M346.9,323.3c6.9,0,5.7-12.3,14.5-12.3"/>
	</g>
	<g>
		<path class="st0" d="M400.6,551.5c-6.9,0-5.7-12.3-14.5-12.3"/>
		<path class="st0" d="M429.7,551.5c-6.9,0-5.7-12.3-14.5-12.3"/>
		<path class="st0" d="M400.6,551.5c6.9,0,5.7-12.3,14.5-12.3"/>
		<path class="st0" d="M444.2,539.3"/>
		<path class="st0" d="M429.7,551.5c6.9,0,5.7-12.3,14.5-12.3"/>
	</g>
	<g>
		<path class="st0" d="M440.3,222.5c-6.9,0-5.7-12.3-14.5-12.3"/>
		<path class="st0" d="M469.3,222.5c-6.9,0-5.7-12.3-14.5-12.3"/>
		<path class="st0" d="M440.3,222.5c6.9,0,5.7-12.3,14.5-12.3"/>
		<path class="st0" d="M483.9,210.2"/>
		<path class="st0" d="M469.3,222.5c6.9,0,5.7-12.3,14.5-12.3"/>
	</g>
	<g>
		<path class="st0" d="M36,207.7c-6.9,0-5.7-12.3-14.5-12.3"/>
		<path class="st0" d="M65,207.7c-6.9,0-5.7-12.3-14.5-12.3"/>
		<path class="st0" d="M36,207.7c6.9,0,5.7-12.3,14.5-12.3"/>
		<path class="st0" d="M79.6,195.4"/>
		<path class="st0" d="M65,207.7c6.9,0,5.7-12.3,14.5-12.3"/>
	</g>
	<g>
		<path class="st0" d="M320.2,43.6c0,6.9-12.3,5.7-12.3,14.5"/>
		<path class="st0" d="M320.2,14.5c0,6.9-12.3,5.7-12.3,14.5"/>
		<path class="st0" d="M320.2,43.6c0-6.9-12.3-5.7-12.3-14.5"/>
		<path class="st0" d="M307.9,0"/>
		<path class="st0" d="M320.2,14.5c0-6.9-12.3-5.7-12.3-14.5"/>
	</g>
	<g>
		<path class="st0" d="M231.1,195.7c0,6.9-12.3,5.7-12.3,14.5"/>
		<path class="st0" d="M231.1,166.6c0,6.9-12.3,5.7-12.3,14.5"/>
		<path class="st0" d="M231.1,195.7c0-6.9-12.3-5.7-12.3-14.5"/>
		<path class="st0" d="M218.8,152.1"/>
		<path class="st0" d="M231.1,166.6c0-6.9-12.3-5.7-12.3-14.5"/>
	</g>
	<g>
		<path class="st0" d="M472.7,438.6c0,6.9-12.3,5.7-12.3,14.5"/>
		<path class="st0" d="M472.7,409.5c0,6.9-12.3,5.7-12.3,14.5"/>
		<path class="st0" d="M472.7,438.6c0-6.9-12.3-5.7-12.3-14.5"/>
		<path class="st0" d="M460.4,395"/>
		<path class="st0" d="M472.7,409.5c0-6.9-12.3-5.7-12.3-14.5"/>
	</g>
	<g>
		<path class="st0" d="M172.9,461.5c0,6.9-12.3,5.7-12.3,14.5"/>
		<path class="st0" d="M172.9,432.4c0,6.9-12.3,5.7-12.3,14.5"/>
		<path class="st0" d="M172.9,461.5c0-6.9-12.3-5.7-12.3-14.5"/>
		<path class="st0" d="M160.6,417.9"/>
		<path class="st0" d="M172.9,432.4c0-6.9-12.3-5.7-12.3-14.5"/>
	</g>
	<line class="st0" x1="352.6" y1="355.9" x2="388.5" y2="355.9"/>
	<line class="st0" x1="0" y1="252.2" x2="35.9" y2="252.2"/>
	<line class="st0" x1="355.3" y1="85.5" x2="391.2" y2="85.5"/>
	<line class="st0" x1="496.7" y1="4.6" x2="532.6" y2="4.6"/>
	<line class="st0" x1="143" y1="539.2" x2="178.9" y2="539.2"/>
	<line class="st0" x1="235.1" y1="469.9" x2="260.5" y2="444.5"/>
	<line class="st0" x1="25.1" y1="29.9" x2="50.5" y2="4.6"/>
	<line class="st0" x1="514.6" y1="289.9" x2="540" y2="264.6"/>
	<g class="st1">
		<polygon class="st2" points="331.5,147.2 321,129.1 310.5,147.3 300,165.4 321,165.4 342,165.4 		"/>
		<polygon class="st2" points="296.8,369.2 286.2,351.1 275.8,369.3 265.3,387.4 286.3,387.4 307.3,387.4 		"/>
		<polygon class="st2" points="417.1,437.4 406.6,419.3 396.1,437.4 385.6,455.6 406.6,455.6 427.6,455.6 		"/>
		<polygon class="st2" points="486.3,298 491.7,277.7 471.5,283.2 451.2,288.6 466.1,303.4 480.9,318.3 		"/>
		<polygon class="st2" points="141.4,62.7 146.8,42.4 126.6,47.9 106.3,53.3 121.1,68.1 136,83 		"/>
		<polygon class="st2" points="127,500.6 132.4,480.3 112.2,485.8 91.9,491.2 106.8,506 121.6,520.9 		"/>
		<polygon class="st2" points="507.6,85.3 525.7,74.8 507.6,64.4 489.4,53.9 489.4,74.9 489.4,95.8 		"/>
		<polygon class="st2" points="126.6,294.9 144.7,284.4 126.5,273.9 108.4,263.4 108.4,284.4 108.4,305.4 		"/>
		<path class="st2" d="M366.9,260.5c0,8.8-7.1,15.9-15.9,15.9s-15.9-7.1-15.9-15.9c0-8.8,7.1-15.9,15.9-15.9
			S366.9,251.8,366.9,260.5z"/>
		<path class="st2" d="M286.5,83c0,8.8-7.1,15.9-15.9,15.9s-15.9-7.1-15.9-15.9s7.1-15.9,15.9-15.9S286.5,74.2,286.5,83z"/>
		<path class="st2" d="M296.7,552.6c0,8.8-7.1,15.9-15.9,15.9s-15.9-7.1-15.9-15.9c0-8.8,7.1-15.9,15.9-15.9
			C289.5,536.7,296.7,543.8,296.7,552.6z"/>
		<path class="st2" d="M339.2,528.8c0-8.8,7.1-15.9,15.9-15.9S371,520,371,528.8"/>
		<path class="st2" d="M212.2,284.4c0-8.8,7.1-15.9,15.9-15.9s15.9,7.1,15.9,15.9"/>
		<path class="st2" d="M44.8,155.2c0-8.8,7.1-15.9,15.8-15.9s15.8,7.1,15.8,15.9"/>
		<path class="st2" d="M445.9,181.3c-8.8,0-15.9-7.1-15.9-15.8s7.1-15.8,15.9-15.8"/>
		<path class="st2" d="M62.7,552.5c-8.8,0-15.9-7.1-15.9-15.8s7.1-15.8,15.9-15.8"/>
		<path class="st2" d="M233.5,46.5c-8.8,0-15.9-7.1-15.9-15.8s7.1-15.8,15.9-15.8"/>
		<path class="st2" d="M70.7,385.2c0,8.8-7.1,15.9-15.9,15.9s-15.9-7.1-15.9-15.9s7.1-15.9,15.9-15.9
			C63.6,369.3,70.7,376.4,70.7,385.2z"/>
		<path class="st2" d="M561.4,403.3c0,8.8-7.1,15.9-15.9,15.9c-8.8,0-15.9-7.1-15.9-15.9s7.1-15.9,15.9-15.9
			C554.3,387.4,561.4,394.6,561.4,403.3z"/>
		<rect x="517.4" y="149.6" class="st2" width="31.7" height="31.7"/>
		<rect x="159.5" y="165.4" class="st2" width="31.7" height="31.7"/>
		<rect x="157.9" y="367.5" class="st2" width="31.7" height="31.7"/>
		<rect x="517.4" y="520.9" class="st2" width="31.7" height="31.7"/>
		<rect x="386.1" y="14.8" class="st2" width="31.7" height="31.7"/>
		<g>
			<path class="st2" d="M340.6,336.6c-6.9,0-5.7-12.3-14.5-12.3"/>
			<path class="st2" d="M369.7,336.6c-6.9,0-5.7-12.3-14.5-12.3"/>
			<path class="st2" d="M340.6,336.6c6.9,0,5.7-12.3,14.5-12.3"/>
			<path class="st2" d="M384.2,324.4"/>
			<path class="st2" d="M369.7,336.6c6.9,0,5.7-12.3,14.5-12.3"/>
		</g>
		<g>
			<path class="st2" d="M423.4,564.9c-6.9,0-5.7-12.3-14.5-12.3"/>
			<path class="st2" d="M452.5,564.9c-6.9,0-5.7-12.3-14.5-12.3"/>
			<path class="st2" d="M423.4,564.9c6.9,0,5.7-12.3,14.5-12.3"/>
			<path class="st2" d="M467,552.6"/>
			<path class="st2" d="M452.5,564.9c6.9,0,5.7-12.3,14.5-12.3"/>
		</g>
		<g>
			<path class="st2" d="M463.1,235.8c-6.9,0-5.7-12.3-14.5-12.3"/>
			<path class="st2" d="M492.1,235.8c-6.9,0-5.7-12.3-14.5-12.3"/>
			<path class="st2" d="M463.1,235.8c6.9,0,5.7-12.3,14.5-12.3"/>
			<path class="st2" d="M506.7,223.6"/>
			<path class="st2" d="M492.1,235.8c6.9,0,5.7-12.3,14.5-12.3"/>
		</g>
		<g>
			<path class="st2" d="M58.8,221c-6.9,0-5.7-12.3-14.5-12.3"/>
			<path class="st2" d="M87.9,221c-6.9,0-5.7-12.3-14.5-12.3"/>
			<path class="st2" d="M58.8,221c6.9,0,5.7-12.3,14.5-12.3"/>
			<path class="st2" d="M102.4,208.8"/>
			<path class="st2" d="M87.9,221c6.9,0,5.7-12.3,14.5-12.3"/>
		</g>
		<g>
			<path class="st2" d="M343,57c0,6.9-12.3,5.7-12.3,14.5"/>
			<path class="st2" d="M343,27.9c0,6.9-12.3,5.7-12.3,14.5"/>
			<path class="st2" d="M343,57c0-6.9-12.3-5.7-12.3-14.5"/>
			<path class="st2" d="M330.8,13.4"/>
			<path class="st2" d="M343,27.9c0-6.9-12.3-5.7-12.3-14.5"/>
		</g>
		<g>
			<path class="st2" d="M253.9,209c0,6.9-12.3,5.7-12.3,14.5"/>
			<path class="st2" d="M253.9,180c0,6.9-12.3,5.7-12.3,14.5"/>
			<path class="st2" d="M253.9,209c0-6.9-12.3-5.7-12.3-14.5"/>
			<path class="st2" d="M241.6,165.4"/>
			<path class="st2" d="M253.9,180c0-6.9-12.3-5.7-12.3-14.5"/>
		</g>
		<g>
			<path class="st2" d="M495.5,452c0,6.9-12.3,5.7-12.3,14.5"/>
			<path class="st2" d="M495.5,422.9c0,6.9-12.3,5.7-12.3,14.5"/>
			<path class="st2" d="M495.5,452c0-6.9-12.3-5.7-12.3-14.5"/>
			<path class="st2" d="M483.3,408.4"/>
			<path class="st2" d="M495.5,422.9c0-6.9-12.3-5.7-12.3-14.5"/>
		</g>
		<g>
			<path class="st2" d="M195.7,474.9c0,6.9-12.3,5.7-12.3,14.5"/>
			<path class="st2" d="M195.7,445.8c0,6.9-12.3,5.7-12.3,14.5"/>
			<path class="st2" d="M195.7,474.9c0-6.9-12.3-5.7-12.3-14.5"/>
			<path class="st2" d="M183.4,431.3"/>
			<path class="st2" d="M195.7,445.8c0-6.9-12.3-5.7-12.3-14.5"/>
		</g>
		<line class="st2" x1="375.4" y1="369.3" x2="411.3" y2="369.3"/>
		<line class="st2" x1="22.8" y1="265.6" x2="58.7" y2="265.6"/>
		<line class="st2" x1="378.1" y1="98.9" x2="414" y2="98.9"/>
		<line class="st2" x1="519.5" y1="17.9" x2="555.4" y2="17.9"/>
		<line class="st2" x1="165.8" y1="552.5" x2="201.7" y2="552.5"/>
		<line class="st2" x1="257.9" y1="483.2" x2="283.3" y2="457.9"/>
		<line class="st2" x1="48" y1="43.3" x2="73.3" y2="17.9"/>
		<line class="st2" x1="537.4" y1="303.3" x2="562.8" y2="277.9"/>
	</g>
	<path class="st0" d="M326.6,440.8c-2.9,1.8-6.8,1-8.6-2c-1.8-2.9-1-6.8,2-8.6c2.9-1.8,6.8-1,8.6,2
		C330.4,435.1,329.5,439,326.6,440.8z"/>
	<path class="st0" d="M277.2,268.4c-2.9,1.8-6.8,1-8.6-2c-1.8-2.9-1-6.8,2-8.6c2.9-1.8,6.8-1,8.6,2
		C281,262.7,280.1,266.6,277.2,268.4z"/>
	<path class="st0" d="M51.3,321.4c-2.9,1.8-6.8,1-8.6-2c-1.8-2.9-1-6.8,2-8.6c2.9-1.8,6.8-1,8.6,2C55.1,315.7,54.2,319.6,51.3,321.4
		z"/>
	<path class="st0" d="M115.5,124.1c-2.9,1.8-6.8,1-8.6-2c-1.8-2.9-1-6.8,2-8.6c2.9-1.8,6.8-1,8.6,2
		C119.3,118.4,118.4,122.3,115.5,124.1z"/>
	<path class="st0" d="M460.3,121c-2.9,1.8-6.8,1-8.6-2c-1.8-2.9-1-6.8,2-8.6c2.9-1.8,6.8-1,8.6,2C464.1,115.3,463.2,119.2,460.3,121
		z"/>
	<path class="st0" d="M548.8,344.3c-2.9,1.8-6.8,1-8.6-2c-1.8-2.9-1-6.8,2-8.6c2.9-1.8,6.8-1,8.6,2
		C552.7,338.6,551.8,342.5,548.8,344.3z"/>
</g>
<g>
	<g>
		<line class="st0" x1="758.1" y1="111" x2="742.9" y2="96.7"/>
		<line class="st0" x1="743.3" y1="111.5" x2="757.7" y2="96.2"/>
	</g>
	<g>
		<line class="st0" x1="775.6" y1="330.4" x2="760.4" y2="316.1"/>
		<line class="st0" x1="760.9" y1="330.9" x2="775.2" y2="315.7"/>
	</g>
	<g>
		<line class="st0" x1="590.1" y1="453" x2="574.8" y2="438.7"/>
		<line class="st0" x1="575.3" y1="453.5" x2="589.6" y2="438.3"/>
	</g>
	<g>
		<line class="st0" x1="583.4" y1="90.1" x2="568.1" y2="75.8"/>
		<line class="st0" x1="568.6" y1="90.6" x2="582.9" y2="75.3"/>
	</g>
	<g>
		<line class="st0" x1="1125.8" y1="110.6" x2="1110.6" y2="96.3"/>
		<line class="st0" x1="1111" y1="111.1" x2="1125.3" y2="95.8"/>
	</g>
	<g>
		<line class="st0" x1="945.9" y1="188.4" x2="930.6" y2="174.1"/>
		<line class="st0" x1="931.1" y1="188.9" x2="945.4" y2="173.6"/>
	</g>
	<g>
		<line class="st0" x1="1020.2" y1="358.2" x2="1005" y2="343.9"/>
		<line class="st0" x1="1005.5" y1="358.7" x2="1019.8" y2="343.5"/>
	</g>
	<g>
		<line class="st0" x1="1008.4" y1="496.6" x2="993.1" y2="482.3"/>
		<line class="st0" x1="993.6" y1="497" x2="1007.9" y2="481.8"/>
	</g>
	<polygon class="st0" points="871.5,133.9 861,115.7 850.5,133.9 840,152.1 861,152.1 882,152 	"/>
	<polygon class="st0" points="836.7,355.9 826.2,337.7 815.8,355.9 805.3,374.1 826.3,374.1 847.2,374 	"/>
	<polygon class="st0" points="957.1,424.1 946.6,405.9 936.1,424.1 925.6,442.2 946.6,442.2 967.6,442.2 	"/>
	<polygon class="st0" points="1026.3,284.6 1031.7,264.4 1011.5,269.8 991.2,275.3 1006.1,290.1 1020.9,304.9 	"/>
	<polygon class="st0" points="681.4,49.3 686.8,29.1 666.5,34.5 646.3,40 661.1,54.8 676,69.6 	"/>
	<polygon class="st0" points="667,487.3 672.4,467 652.2,472.4 631.9,477.9 646.8,492.7 661.6,507.5 	"/>
	<polygon class="st0" points="1047.6,72 1065.7,61.5 1047.5,51 1029.4,40.5 1029.4,61.5 1029.4,82.5 	"/>
	<polygon class="st0" points="666.6,281.5 684.7,271 666.5,260.6 648.4,250.1 648.4,271.1 648.4,292 	"/>
	<path class="st0" d="M906.9,247.2c0,8.8-7.1,15.9-15.9,15.9c-8.8,0-15.9-7.1-15.9-15.9c0-8.8,7.1-15.9,15.9-15.9
		C899.8,231.3,906.9,238.4,906.9,247.2z"/>
	<path class="st0" d="M826.5,69.6c0,8.8-7.1,15.9-15.9,15.9c-8.8,0-15.9-7.1-15.9-15.9s7.1-15.9,15.9-15.9
		C819.4,53.7,826.5,60.8,826.5,69.6z"/>
	<path class="st0" d="M836.7,539.3c0,8.8-7.1,15.9-15.9,15.9s-15.9-7.1-15.9-15.9c0-8.8,7.1-15.9,15.9-15.9S836.7,530.5,836.7,539.3
		z"/>
	<path class="st0" d="M879.2,515.5c0-8.8,7.1-15.9,15.9-15.9c8.8,0,15.9,7.1,15.9,15.9"/>
	<path class="st0" d="M752.2,271.1c0-8.8,7.1-15.9,15.9-15.9s15.9,7.1,15.9,15.9"/>
	<path class="st0" d="M584.8,141.9c0-8.8,7.1-15.9,15.8-15.9s15.8,7.1,15.8,15.9"/>
	<path class="st0" d="M985.9,167.9c-8.8,0-15.9-7.1-15.9-15.8s7.1-15.8,15.9-15.8"/>
	<path class="st0" d="M602.7,539.2c-8.8,0-15.9-7.1-15.9-15.8s7.1-15.8,15.9-15.8"/>
	<path class="st0" d="M773.5,33.1c-8.8,0-15.9-7.1-15.9-15.8s7.1-15.8,15.9-15.8"/>
	<path class="st0" d="M610.7,371.8c0,8.8-7.1,15.9-15.9,15.9s-15.9-7.1-15.9-15.9s7.1-15.9,15.9-15.9S610.7,363,610.7,371.8z"/>
	<path class="st0" d="M1101.4,390c0,8.8-7.1,15.9-15.9,15.9s-15.9-7.1-15.9-15.9s7.1-15.9,15.9-15.9S1101.4,381.2,1101.4,390z"/>
	<rect x="1057.4" y="136.2" class="st0" width="31.7" height="31.7"/>
	<rect x="699.5" y="152.1" class="st0" width="31.7" height="31.7"/>
	<rect x="697.9" y="354.2" class="st0" width="31.7" height="31.7"/>
	<rect x="1057.4" y="507.5" class="st0" width="31.7" height="31.7"/>
	<rect x="926.1" y="1.4" class="st0" width="31.7" height="31.7"/>
	<g>
		<path class="st0" d="M880.6,323.3c-6.9,0-5.7-12.3-14.5-12.3"/>
		<path class="st0" d="M909.7,323.3c-6.9,0-5.7-12.3-14.5-12.3"/>
		<path class="st0" d="M880.6,323.3c6.9,0,5.7-12.3,14.5-12.3"/>
		<path class="st0" d="M924.2,311"/>
		<path class="st0" d="M909.7,323.3c6.9,0,5.7-12.3,14.5-12.3"/>
	</g>
	<g>
		<path class="st0" d="M963.4,551.5c-6.9,0-5.7-12.3-14.5-12.3"/>
		<path class="st0" d="M992.5,551.5c-6.9,0-5.7-12.3-14.5-12.3"/>
		<path class="st0" d="M963.4,551.5c6.9,0,5.7-12.3,14.5-12.3"/>
		<path class="st0" d="M1007,539.3"/>
		<path class="st0" d="M992.5,551.5c6.9,0,5.7-12.3,14.5-12.3"/>
	</g>
	<g>
		<path class="st0" d="M1003.1,222.5c-6.9,0-5.7-12.3-14.5-12.3"/>
		<path class="st0" d="M1032.1,222.5c-6.9,0-5.7-12.3-14.5-12.3"/>
		<path class="st0" d="M1003.1,222.5c6.9,0,5.7-12.3,14.5-12.3"/>
		<path class="st0" d="M1046.7,210.2"/>
		<path class="st0" d="M1032.1,222.5c6.9,0,5.7-12.3,14.5-12.3"/>
	</g>
	<g>
		<path class="st0" d="M598.8,207.7c-6.9,0-5.7-12.3-14.5-12.3"/>
		<path class="st0" d="M627.9,207.7c-6.9,0-5.7-12.3-14.5-12.3"/>
		<path class="st0" d="M598.8,207.7c6.9,0,5.7-12.3,14.5-12.3"/>
		<path class="st0" d="M642.4,195.4"/>
		<path class="st0" d="M627.9,207.7c6.9,0,5.7-12.3,14.5-12.3"/>
	</g>
	<g>
		<path class="st0" d="M883,43.6c0,6.9-12.3,5.7-12.3,14.5"/>
		<path class="st0" d="M883,14.5c0,6.9-12.3,5.7-12.3,14.5"/>
		<path class="st0" d="M883,43.6c0-6.9-12.3-5.7-12.3-14.5"/>
		<path class="st0" d="M870.8,0"/>
		<path class="st0" d="M883,14.5c0-6.9-12.3-5.7-12.3-14.5"/>
	</g>
	<g>
		<path class="st0" d="M793.9,195.7c0,6.9-12.3,5.7-12.3,14.5"/>
		<path class="st0" d="M793.9,166.6c0,6.9-12.3,5.7-12.3,14.5"/>
		<path class="st0" d="M793.9,195.7c0-6.9-12.3-5.7-12.3-14.5"/>
		<path class="st0" d="M781.6,152.1"/>
		<path class="st0" d="M793.9,166.6c0-6.9-12.3-5.7-12.3-14.5"/>
	</g>
	<g>
		<path class="st0" d="M1035.5,438.6c0,6.9-12.3,5.7-12.3,14.5"/>
		<path class="st0" d="M1035.5,409.5c0,6.9-12.3,5.7-12.3,14.5"/>
		<path class="st0" d="M1035.5,438.6c0-6.9-12.3-5.7-12.3-14.5"/>
		<path class="st0" d="M1023.2,395"/>
		<path class="st0" d="M1035.5,409.5c0-6.9-12.3-5.7-12.3-14.5"/>
	</g>
	<g>
		<path class="st0" d="M735.7,461.5c0,6.9-12.3,5.7-12.3,14.5"/>
		<path class="st0" d="M735.7,432.4c0,6.9-12.3,5.7-12.3,14.5"/>
		<path class="st0" d="M735.7,461.5c0-6.9-12.3-5.7-12.3-14.5"/>
		<path class="st0" d="M723.4,417.9"/>
		<path class="st0" d="M735.7,432.4c0-6.9-12.3-5.7-12.3-14.5"/>
	</g>
	<line class="st0" x1="915.4" y1="355.9" x2="951.3" y2="355.9"/>
	<line class="st0" x1="562.8" y1="252.2" x2="598.7" y2="252.2"/>
	<line class="st0" x1="918.1" y1="85.5" x2="954" y2="85.5"/>
	<line class="st0" x1="1059.5" y1="4.6" x2="1095.4" y2="4.6"/>
	<line class="st0" x1="705.8" y1="539.2" x2="741.7" y2="539.2"/>
	<line class="st0" x1="797.9" y1="469.9" x2="823.3" y2="444.5"/>
	<line class="st0" x1="588" y1="29.9" x2="613.3" y2="4.6"/>
	<line class="st0" x1="1077.4" y1="289.9" x2="1102.8" y2="264.6"/>
	<g class="st1">
		<polygon class="st2" points="894.3,147.2 883.8,129.1 873.3,147.3 862.8,165.4 883.8,165.4 904.8,165.4 		"/>
		<polygon class="st2" points="859.6,369.2 849.1,351.1 838.6,369.3 828.1,387.4 849.1,387.4 870.1,387.4 		"/>
		<polygon class="st2" points="979.9,437.4 969.4,419.3 958.9,437.4 948.5,455.6 969.4,455.6 990.4,455.6 		"/>
		<polygon class="st2" points="1049.1,298 1054.5,277.7 1034.3,283.2 1014,288.6 1028.9,303.4 1043.7,318.3 		"/>
		<polygon class="st2" points="704.2,62.7 709.6,42.4 689.4,47.9 669.1,53.3 683.9,68.1 698.8,83 		"/>
		<polygon class="st2" points="689.8,500.6 695.3,480.3 675,485.8 654.7,491.2 669.6,506 684.4,520.9 		"/>
		<polygon class="st2" points="1070.4,85.3 1088.5,74.8 1070.4,64.4 1052.2,53.9 1052.2,74.9 1052.2,95.8 		"/>
		<polygon class="st2" points="689.4,294.9 707.5,284.4 689.4,273.9 671.2,263.4 671.2,284.4 671.2,305.4 		"/>
		<path class="st2" d="M929.7,260.5c0,8.8-7.1,15.9-15.9,15.9c-8.8,0-15.9-7.1-15.9-15.9c0-8.8,7.1-15.9,15.9-15.9
			C922.6,244.6,929.7,251.8,929.7,260.5z"/>
		<path class="st2" d="M849.3,83c0,8.8-7.1,15.9-15.9,15.9s-15.9-7.1-15.9-15.9s7.1-15.9,15.9-15.9S849.3,74.2,849.3,83z"/>
		<path class="st2" d="M859.5,552.6c0,8.8-7.1,15.9-15.9,15.9c-8.8,0-15.9-7.1-15.9-15.9c0-8.8,7.1-15.9,15.9-15.9
			C852.4,536.7,859.5,543.8,859.5,552.6z"/>
		<path class="st2" d="M902,528.8c0-8.8,7.1-15.9,15.9-15.9c8.8,0,15.9,7.1,15.9,15.9"/>
		<path class="st2" d="M775,284.4c0-8.8,7.1-15.9,15.9-15.9c8.8,0,15.9,7.1,15.9,15.9"/>
		<path class="st2" d="M607.6,155.2c0-8.8,7.1-15.9,15.8-15.9s15.8,7.1,15.8,15.9"/>
		<path class="st2" d="M1008.7,181.3c-8.8,0-15.9-7.1-15.9-15.8s7.1-15.8,15.9-15.8"/>
		<path class="st2" d="M625.6,552.5c-8.8,0-15.9-7.1-15.9-15.8s7.1-15.8,15.9-15.8"/>
		<path class="st2" d="M796.3,46.5c-8.8,0-15.9-7.1-15.9-15.8s7.1-15.8,15.9-15.8"/>
		<path class="st2" d="M633.5,385.2c0,8.8-7.1,15.9-15.9,15.9c-8.8,0-15.9-7.1-15.9-15.9s7.1-15.9,15.9-15.9
			C626.4,369.3,633.5,376.4,633.5,385.2z"/>
		<path class="st2" d="M1124.2,403.3c0,8.8-7.1,15.9-15.9,15.9s-15.9-7.1-15.9-15.9s7.1-15.9,15.9-15.9S1124.2,394.6,1124.2,403.3z"
			/>
		<rect x="1080.2" y="149.6" class="st2" width="31.7" height="31.7"/>
		<rect x="722.3" y="165.4" class="st2" width="31.7" height="31.7"/>
		<rect x="720.7" y="367.5" class="st2" width="31.7" height="31.7"/>
		<rect x="1080.2" y="520.9" class="st2" width="31.7" height="31.7"/>
		<rect x="948.9" y="14.8" class="st2" width="31.7" height="31.7"/>
		<g>
			<path class="st2" d="M903.4,336.6c-6.9,0-5.7-12.3-14.5-12.3"/>
			<path class="st2" d="M932.5,336.6c-6.9,0-5.7-12.3-14.5-12.3"/>
			<path class="st2" d="M903.4,336.6c6.9,0,5.7-12.3,14.5-12.3"/>
			<path class="st2" d="M947,324.4"/>
			<path class="st2" d="M932.5,336.6c6.9,0,5.7-12.3,14.5-12.3"/>
		</g>
		<g>
			<path class="st2" d="M986.2,564.9c-6.9,0-5.7-12.3-14.5-12.3"/>
			<path class="st2" d="M1015.3,564.9c-6.9,0-5.7-12.3-14.5-12.3"/>
			<path class="st2" d="M986.2,564.9c6.9,0,5.7-12.3,14.5-12.3"/>
			<path class="st2" d="M1029.8,552.6"/>
			<path class="st2" d="M1015.3,564.9c6.9,0,5.7-12.3,14.5-12.3"/>
		</g>
		<g>
			<path class="st2" d="M1025.9,235.8c-6.9,0-5.7-12.3-14.5-12.3"/>
			<path class="st2" d="M1055,235.8c-6.9,0-5.7-12.3-14.5-12.3"/>
			<path class="st2" d="M1025.9,235.8c6.9,0,5.7-12.3,14.5-12.3"/>
			<path class="st2" d="M1069.5,223.6"/>
			<path class="st2" d="M1055,235.8c6.9,0,5.7-12.3,14.5-12.3"/>
		</g>
		<g>
			<path class="st2" d="M621.6,221c-6.9,0-5.7-12.3-14.5-12.3"/>
			<path class="st2" d="M650.7,221c-6.9,0-5.7-12.3-14.5-12.3"/>
			<path class="st2" d="M621.6,221c6.9,0,5.7-12.3,14.5-12.3"/>
			<path class="st2" d="M665.2,208.8"/>
			<path class="st2" d="M650.7,221c6.9,0,5.7-12.3,14.5-12.3"/>
		</g>
		<g>
			<path class="st2" d="M905.8,57c0,6.9-12.3,5.7-12.3,14.5"/>
			<path class="st2" d="M905.8,27.9c0,6.9-12.3,5.7-12.3,14.5"/>
			<path class="st2" d="M905.8,57c0-6.9-12.3-5.7-12.3-14.5"/>
			<path class="st2" d="M893.6,13.4"/>
			<path class="st2" d="M905.8,27.9c0-6.9-12.3-5.7-12.3-14.5"/>
		</g>
		<g>
			<path class="st2" d="M816.7,209c0,6.9-12.3,5.7-12.3,14.5"/>
			<path class="st2" d="M816.7,180c0,6.9-12.3,5.7-12.3,14.5"/>
			<path class="st2" d="M816.7,209c0-6.9-12.3-5.7-12.3-14.5"/>
			<path class="st2" d="M804.4,165.4"/>
			<path class="st2" d="M816.7,180c0-6.9-12.3-5.7-12.3-14.5"/>
		</g>
		<g>
			<path class="st2" d="M1058.3,452c0,6.9-12.3,5.7-12.3,14.5"/>
			<path class="st2" d="M1058.3,422.9c0,6.9-12.3,5.7-12.3,14.5"/>
			<path class="st2" d="M1058.3,452c0-6.9-12.3-5.7-12.3-14.5"/>
			<path class="st2" d="M1046.1,408.4"/>
			<path class="st2" d="M1058.3,422.9c0-6.9-12.3-5.7-12.3-14.5"/>
		</g>
		<g>
			<path class="st2" d="M758.5,474.9c0,6.9-12.3,5.7-12.3,14.5"/>
			<path class="st2" d="M758.5,445.8c0,6.9-12.3,5.7-12.3,14.5"/>
			<path class="st2" d="M758.5,474.9c0-6.9-12.3-5.7-12.3-14.5"/>
			<path class="st2" d="M746.3,431.3"/>
			<path class="st2" d="M758.5,445.8c0-6.9-12.3-5.7-12.3-14.5"/>
		</g>
		<line class="st2" x1="938.3" y1="369.3" x2="974.1" y2="369.3"/>
		<line class="st2" x1="585.6" y1="265.6" x2="621.5" y2="265.6"/>
		<line class="st2" x1="940.9" y1="98.9" x2="976.8" y2="98.9"/>
		<line class="st2" x1="1082.3" y1="17.9" x2="1118.2" y2="17.9"/>
		<line class="st2" x1="728.6" y1="552.5" x2="764.5" y2="552.5"/>
		<line class="st2" x1="820.7" y1="483.2" x2="846.1" y2="457.9"/>
		<line class="st2" x1="610.8" y1="43.3" x2="636.1" y2="17.9"/>
		<line class="st2" x1="1100.3" y1="303.3" x2="1125.6" y2="277.9"/>
	</g>
	<path class="st0" d="M889.4,440.8c-2.9,1.8-6.8,1-8.6-2c-1.8-2.9-1-6.8,2-8.6c2.9-1.8,6.8-1,8.6,2
		C893.2,435.1,892.3,439,889.4,440.8z"/>
	<path class="st0" d="M840,268.4c-2.9,1.8-6.8,1-8.6-2c-1.8-2.9-1-6.8,2-8.6c2.9-1.8,6.8-1,8.6,2C843.8,262.7,842.9,266.6,840,268.4
		z"/>
	<path class="st0" d="M614.1,321.4c-2.9,1.8-6.8,1-8.6-2c-1.8-2.9-1-6.8,2-8.6c2.9-1.8,6.8-1,8.6,2
		C617.9,315.7,617,319.6,614.1,321.4z"/>
	<path class="st0" d="M678.3,124.1c-2.9,1.8-6.8,1-8.6-2c-1.8-2.9-1-6.8,2-8.6c2.9-1.8,6.8-1,8.6,2
		C682.1,118.4,681.3,122.3,678.3,124.1z"/>
	<path class="st0" d="M1023.1,121c-2.9,1.8-6.8,1-8.6-2c-1.8-2.9-1-6.8,2-8.6c2.9-1.8,6.8-1,8.6,2
		C1026.9,115.3,1026,119.2,1023.1,121z"/>
	<path class="st0" d="M1111.7,344.3c-2.9,1.8-6.8,1-8.6-2c-1.8-2.9-1-6.8,2-8.6c2.9-1.8,6.8-1,8.6,2
		C1115.5,338.6,1114.6,342.5,1111.7,344.3z"/>
</g>
<g>
	<g>
		<line class="st0" x1="195.3" y1="679.5" x2="180.1" y2="665.2"/>
		<line class="st0" x1="180.5" y1="680" x2="194.8" y2="664.7"/>
	</g>
	<g>
		<line class="st0" x1="212.8" y1="899" x2="197.6" y2="884.7"/>
		<line class="st0" x1="198.1" y1="899.4" x2="212.4" y2="884.2"/>
	</g>
	<g>
		<line class="st0" x1="27.2" y1="1021.6" x2="12" y2="1007.3"/>
		<line class="st0" x1="12.5" y1="1022" x2="26.8" y2="1006.8"/>
	</g>
	<g>
		<line class="st0" x1="20.6" y1="658.6" x2="5.3" y2="644.3"/>
		<line class="st0" x1="5.8" y1="659.1" x2="20.1" y2="643.9"/>
	</g>
	<g>
		<line class="st0" x1="563" y1="679.1" x2="547.8" y2="664.8"/>
		<line class="st0" x1="548.2" y1="679.6" x2="562.5" y2="664.4"/>
	</g>
	<g>
		<line class="st0" x1="383.1" y1="757" x2="367.8" y2="742.6"/>
		<line class="st0" x1="368.3" y1="757.4" x2="382.6" y2="742.2"/>
	</g>
	<g>
		<line class="st0" x1="457.4" y1="926.8" x2="442.2" y2="912.5"/>
		<line class="st0" x1="442.7" y1="927.2" x2="457" y2="912"/>
	</g>
	<g>
		<line class="st0" x1="445.6" y1="1065.1" x2="430.3" y2="1050.8"/>
		<line class="st0" x1="430.8" y1="1065.6" x2="445.1" y2="1050.3"/>
	</g>
	<polygon class="st0" points="308.7,702.4 298.2,684.3 287.7,702.4 277.2,720.6 298.2,720.6 319.2,720.6 	"/>
	<polygon class="st0" points="273.9,924.4 263.4,906.3 253,924.4 242.5,942.6 263.5,942.6 284.4,942.6 	"/>
	<polygon class="st0" points="394.3,992.6 383.8,974.4 373.3,992.6 362.8,1010.8 383.8,1010.8 404.8,1010.8 	"/>
	<polygon class="st0" points="463.5,853.2 468.9,832.9 448.7,838.3 428.4,843.8 443.2,858.6 458.1,873.4 	"/>
	<polygon class="st0" points="118.6,617.9 124,597.6 103.7,603 83.5,608.5 98.3,623.3 113.2,638.1 	"/>
	<polygon class="st0" points="104.2,1055.8 109.6,1035.5 89.4,1041 69.1,1046.4 84,1061.2 98.8,1076 	"/>
	<polygon class="st0" points="484.7,640.5 502.9,630 484.7,619.5 466.6,609.1 466.6,630 466.6,651 	"/>
	<polygon class="st0" points="103.7,850.1 121.9,839.6 103.7,829.1 85.6,818.6 85.6,839.6 85.6,860.6 	"/>
	<path class="st0" d="M344.1,815.7c0,8.8-7.1,15.9-15.9,15.9s-15.9-7.1-15.9-15.9c0-8.8,7.1-15.9,15.9-15.9S344.1,806.9,344.1,815.7
		z"/>
	<path class="st0" d="M263.7,638.1c0,8.8-7.1,15.9-15.9,15.9c-8.8,0-15.9-7.1-15.9-15.9c0-8.8,7.1-15.9,15.9-15.9
		C256.6,622.2,263.7,629.3,263.7,638.1z"/>
	<path class="st0" d="M273.9,1107.8c0,8.8-7.1,15.9-15.9,15.9c-8.8,0-15.9-7.1-15.9-15.9s7.1-15.9,15.9-15.9
		C266.7,1091.9,273.9,1099,273.9,1107.8z"/>
	<path class="st0" d="M316.4,1084c0-8.8,7.1-15.9,15.9-15.9s15.9,7.1,15.9,15.9"/>
	<path class="st0" d="M189.4,839.6c0-8.8,7.1-15.9,15.9-15.9s15.9,7.1,15.9,15.9"/>
	<path class="st0" d="M22,710.4c0-8.8,7.1-15.9,15.8-15.9s15.8,7.1,15.8,15.9"/>
	<path class="st0" d="M423.1,736.4c-8.8,0-15.9-7.1-15.9-15.8s7.1-15.8,15.9-15.8"/>
	<path class="st0" d="M39.9,1107.7c-8.8,0-15.9-7.1-15.9-15.8s7.1-15.8,15.9-15.8"/>
	<path class="st0" d="M210.7,601.6c-8.8,0-15.9-7.1-15.9-15.8s7.1-15.8,15.9-15.8"/>
	<path class="st0" d="M47.9,940.3c0,8.8-7.1,15.9-15.9,15.9s-15.9-7.1-15.9-15.9c0-8.8,7.1-15.9,15.9-15.9S47.9,931.6,47.9,940.3z"
		/>
	<path class="st0" d="M538.6,958.5c0,8.8-7.1,15.9-15.9,15.9c-8.8,0-15.9-7.1-15.9-15.9c0-8.8,7.1-15.9,15.9-15.9
		C531.5,942.6,538.6,949.7,538.6,958.5z"/>
	<rect x="494.6" y="704.8" class="st0" width="31.7" height="31.7"/>
	<rect x="136.7" y="720.6" class="st0" width="31.7" height="31.7"/>
	<rect x="135.1" y="922.7" class="st0" width="31.7" height="31.7"/>
	<rect x="494.6" y="1076" class="st0" width="31.7" height="31.7"/>
	<rect x="363.3" y="570" class="st0" width="31.7" height="31.7"/>
	<g>
		<path class="st0" d="M317.8,891.8c-6.9,0-5.7-12.3-14.5-12.3"/>
		<path class="st0" d="M346.9,891.8c-6.9,0-5.7-12.3-14.5-12.3"/>
		<path class="st0" d="M317.8,891.8c6.9,0,5.7-12.3,14.5-12.3"/>
		<path class="st0" d="M361.4,879.6"/>
		<path class="st0" d="M346.9,891.8c6.9,0,5.7-12.3,14.5-12.3"/>
	</g>
	<g>
		<path class="st0" d="M400.6,1120c-6.9,0-5.7-12.3-14.5-12.3"/>
		<path class="st0" d="M429.7,1120c-6.9,0-5.7-12.3-14.5-12.3"/>
		<path class="st0" d="M400.6,1120c6.9,0,5.7-12.3,14.5-12.3"/>
		<path class="st0" d="M444.2,1107.8"/>
		<path class="st0" d="M429.7,1120c6.9,0,5.7-12.3,14.5-12.3"/>
	</g>
	<g>
		<path class="st0" d="M440.3,791c-6.9,0-5.7-12.3-14.5-12.3"/>
		<path class="st0" d="M469.3,791c-6.9,0-5.7-12.3-14.5-12.3"/>
		<path class="st0" d="M440.3,791c6.9,0,5.7-12.3,14.5-12.3"/>
		<path class="st0" d="M483.9,778.7"/>
		<path class="st0" d="M469.3,791c6.9,0,5.7-12.3,14.5-12.3"/>
	</g>
	<g>
		<path class="st0" d="M36,776.2c-6.9,0-5.7-12.3-14.5-12.3"/>
		<path class="st0" d="M65,776.2c-6.9,0-5.7-12.3-14.5-12.3"/>
		<path class="st0" d="M36,776.2c6.9,0,5.7-12.3,14.5-12.3"/>
		<path class="st0" d="M79.6,763.9"/>
		<path class="st0" d="M65,776.2c6.9,0,5.7-12.3,14.5-12.3"/>
	</g>
	<g>
		<path class="st0" d="M320.2,612.1c0,6.9-12.3,5.7-12.3,14.5"/>
		<path class="st0" d="M320.2,583.1c0,6.9-12.3,5.7-12.3,14.5"/>
		<path class="st0" d="M320.2,612.1c0-6.9-12.3-5.7-12.3-14.5"/>
		<path class="st0" d="M307.9,568.5"/>
		<path class="st0" d="M320.2,583.1c0-6.9-12.3-5.7-12.3-14.5"/>
	</g>
	<g>
		<path class="st0" d="M231.1,764.2c0,6.9-12.3,5.7-12.3,14.5"/>
		<path class="st0" d="M231.1,735.1c0,6.9-12.3,5.7-12.3,14.5"/>
		<path class="st0" d="M231.1,764.2c0-6.9-12.3-5.7-12.3-14.5"/>
		<path class="st0" d="M218.8,720.6"/>
		<path class="st0" d="M231.1,735.1c0-6.9-12.3-5.7-12.3-14.5"/>
	</g>
	<g>
		<path class="st0" d="M472.7,1007.1c0,6.9-12.3,5.7-12.3,14.5"/>
		<path class="st0" d="M472.7,978.1c0,6.9-12.3,5.7-12.3,14.5"/>
		<path class="st0" d="M472.7,1007.1c0-6.9-12.3-5.7-12.3-14.5"/>
		<path class="st0" d="M460.4,963.5"/>
		<path class="st0" d="M472.7,978.1c0-6.9-12.3-5.7-12.3-14.5"/>
	</g>
	<g>
		<path class="st0" d="M172.9,1030c0,6.9-12.3,5.7-12.3,14.5"/>
		<path class="st0" d="M172.9,1001c0,6.9-12.3,5.7-12.3,14.5"/>
		<path class="st0" d="M172.9,1030c0-6.9-12.3-5.7-12.3-14.5"/>
		<path class="st0" d="M160.6,986.4"/>
		<path class="st0" d="M172.9,1001c0-6.9-12.3-5.7-12.3-14.5"/>
	</g>
	<line class="st0" x1="352.6" y1="924.4" x2="388.5" y2="924.4"/>
	<line class="st0" x1="0" y1="820.8" x2="35.9" y2="820.8"/>
	<line class="st0" x1="355.3" y1="654" x2="391.2" y2="654"/>
	<line class="st0" x1="496.7" y1="573.1" x2="532.6" y2="573.1"/>
	<line class="st0" x1="143" y1="1107.7" x2="178.9" y2="1107.7"/>
	<line class="st0" x1="235.1" y1="1038.4" x2="260.5" y2="1013.1"/>
	<line class="st0" x1="25.1" y1="598.5" x2="50.5" y2="573.1"/>
	<line class="st0" x1="514.6" y1="858.5" x2="540" y2="833.1"/>
	<g class="st1">
		<polygon class="st2" points="331.5,715.8 321,697.6 310.5,715.8 300,734 321,733.9 342,733.9 		"/>
		<polygon class="st2" points="296.8,937.8 286.2,919.6 275.8,937.8 265.3,956 286.3,955.9 307.3,955.9 		"/>
		<polygon class="st2" points="417.1,1006 406.6,987.8 396.1,1006 385.6,1024.1 406.6,1024.1 427.6,1024.1 		"/>
		<polygon class="st2" points="486.3,866.5 491.7,846.3 471.5,851.7 451.2,857.1 466.1,872 480.9,886.8 		"/>
		<polygon class="st2" points="141.4,631.2 146.8,611 126.6,616.4 106.3,621.9 121.1,636.7 136,651.5 		"/>
		<polygon class="st2" points="127,1069.1 132.4,1048.9 112.2,1054.3 91.9,1059.8 106.8,1074.6 121.6,1089.4 		"/>
		<polygon class="st2" points="507.6,653.9 525.7,643.4 507.6,632.9 489.4,622.4 489.4,643.4 489.4,664.4 		"/>
		<polygon class="st2" points="126.6,863.4 144.7,852.9 126.5,842.5 108.4,832 108.4,852.9 108.4,873.9 		"/>
		<path class="st2" d="M366.9,829.1c0,8.8-7.1,15.9-15.9,15.9s-15.9-7.1-15.9-15.9c0-8.8,7.1-15.9,15.9-15.9
			C359.8,813.2,366.9,820.3,366.9,829.1z"/>
		<path class="st2" d="M286.5,651.5c0,8.8-7.1,15.9-15.9,15.9s-15.9-7.1-15.9-15.9c0-8.8,7.1-15.9,15.9-15.9
			S286.5,642.7,286.5,651.5z"/>
		<path class="st2" d="M296.7,1121.1c0,8.8-7.1,15.9-15.9,15.9s-15.9-7.1-15.9-15.9s7.1-15.9,15.9-15.9
			C289.5,1105.2,296.7,1112.4,296.7,1121.1z"/>
		<path class="st2" d="M339.2,1097.4c0-8.8,7.1-15.9,15.9-15.9s15.9,7.1,15.9,15.9"/>
		<path class="st2" d="M212.2,852.9c0-8.8,7.1-15.9,15.9-15.9s15.9,7.1,15.9,15.9"/>
		<path class="st2" d="M44.8,723.7c0-8.8,7.1-15.9,15.8-15.9s15.8,7.1,15.8,15.9"/>
		<path class="st2" d="M445.9,749.8c-8.8,0-15.9-7.1-15.9-15.8s7.1-15.8,15.9-15.8"/>
		<path class="st2" d="M62.7,1121.1c-8.8,0-15.9-7.1-15.9-15.8c0-8.7,7.1-15.8,15.9-15.8"/>
		<path class="st2" d="M233.5,615c-8.8,0-15.9-7.1-15.9-15.8s7.1-15.8,15.9-15.8"/>
		<path class="st2" d="M70.7,953.7c0,8.8-7.1,15.9-15.9,15.9s-15.9-7.1-15.9-15.9c0-8.8,7.1-15.9,15.9-15.9S70.7,944.9,70.7,953.7z"
			/>
		<path class="st2" d="M561.4,971.9c0,8.8-7.1,15.9-15.9,15.9c-8.8,0-15.9-7.1-15.9-15.9c0-8.8,7.1-15.9,15.9-15.9
			C554.3,956,561.4,963.1,561.4,971.9z"/>
		<rect x="517.4" y="718.1" class="st2" width="31.7" height="31.7"/>
		<rect x="159.5" y="734" class="st2" width="31.7" height="31.7"/>
		<rect x="157.9" y="936" class="st2" width="31.7" height="31.7"/>
		<rect x="517.4" y="1089.4" class="st2" width="31.7" height="31.7"/>
		<rect x="386.1" y="583.3" class="st2" width="31.7" height="31.7"/>
		<g>
			<path class="st2" d="M340.6,905.2c-6.9,0-5.7-12.3-14.5-12.3"/>
			<path class="st2" d="M369.7,905.2c-6.9,0-5.7-12.3-14.5-12.3"/>
			<path class="st2" d="M340.6,905.2c6.9,0,5.7-12.3,14.5-12.3"/>
			<path class="st2" d="M384.2,892.9"/>
			<path class="st2" d="M369.7,905.2c6.9,0,5.7-12.3,14.5-12.3"/>
		</g>
		<g>
			<path class="st2" d="M423.4,1133.4c-6.9,0-5.7-12.3-14.5-12.3"/>
			<path class="st2" d="M452.5,1133.4c-6.9,0-5.7-12.3-14.5-12.3"/>
			<path class="st2" d="M423.4,1133.4c6.9,0,5.7-12.3,14.5-12.3"/>
			<path class="st2" d="M467,1121.1"/>
			<path class="st2" d="M452.5,1133.4c6.9,0,5.7-12.3,14.5-12.3"/>
		</g>
		<g>
			<path class="st2" d="M463.1,804.4c-6.9,0-5.7-12.3-14.5-12.3"/>
			<path class="st2" d="M492.1,804.4c-6.9,0-5.7-12.3-14.5-12.3"/>
			<path class="st2" d="M463.1,804.4c6.9,0,5.7-12.3,14.5-12.3"/>
			<path class="st2" d="M506.7,792.1"/>
			<path class="st2" d="M492.1,804.4c6.9,0,5.7-12.3,14.5-12.3"/>
		</g>
		<g>
			<path class="st2" d="M58.8,789.6c-6.9,0-5.7-12.3-14.5-12.3"/>
			<path class="st2" d="M87.9,789.6c-6.9,0-5.7-12.3-14.5-12.3"/>
			<path class="st2" d="M58.8,789.6c6.9,0,5.7-12.3,14.5-12.3"/>
			<path class="st2" d="M102.4,777.3"/>
			<path class="st2" d="M87.9,789.6c6.9,0,5.7-12.3,14.5-12.3"/>
		</g>
		<g>
			<path class="st2" d="M343,625.5c0,6.9-12.3,5.7-12.3,14.5"/>
			<path class="st2" d="M343,596.4c0,6.9-12.3,5.7-12.3,14.5"/>
			<path class="st2" d="M343,625.5c0-6.9-12.3-5.7-12.3-14.5"/>
			<path class="st2" d="M330.8,581.9"/>
			<path class="st2" d="M343,596.4c0-6.9-12.3-5.7-12.3-14.5"/>
		</g>
		<g>
			<path class="st2" d="M253.9,777.6c0,6.9-12.3,5.7-12.3,14.5"/>
			<path class="st2" d="M253.9,748.5c0,6.9-12.3,5.7-12.3,14.5"/>
			<path class="st2" d="M253.9,777.6c0-6.9-12.3-5.7-12.3-14.5"/>
			<path class="st2" d="M241.6,734"/>
			<path class="st2" d="M253.9,748.5c0-6.9-12.3-5.7-12.3-14.5"/>
		</g>
		<g>
			<path class="st2" d="M495.5,1020.5c0,6.9-12.3,5.7-12.3,14.5"/>
			<path class="st2" d="M495.5,991.4c0,6.9-12.3,5.7-12.3,14.5"/>
			<path class="st2" d="M495.5,1020.5c0-6.9-12.3-5.7-12.3-14.5"/>
			<path class="st2" d="M483.3,976.9"/>
			<path class="st2" d="M495.5,991.4c0-6.9-12.3-5.7-12.3-14.5"/>
		</g>
		<g>
			<path class="st2" d="M195.7,1043.4c0,6.9-12.3,5.7-12.3,14.5"/>
			<path class="st2" d="M195.7,1014.3c0,6.9-12.3,5.7-12.3,14.5"/>
			<path class="st2" d="M195.7,1043.4c0-6.9-12.3-5.7-12.3-14.5"/>
			<path class="st2" d="M183.4,999.8"/>
			<path class="st2" d="M195.7,1014.3c0-6.9-12.3-5.7-12.3-14.5"/>
		</g>
		<line class="st2" x1="375.4" y1="937.8" x2="411.3" y2="937.8"/>
		<line class="st2" x1="22.8" y1="834.1" x2="58.7" y2="834.1"/>
		<line class="st2" x1="378.1" y1="667.4" x2="414" y2="667.4"/>
		<line class="st2" x1="519.5" y1="586.5" x2="555.4" y2="586.5"/>
		<line class="st2" x1="165.8" y1="1121.1" x2="201.7" y2="1121.1"/>
		<line class="st2" x1="257.9" y1="1051.8" x2="283.3" y2="1026.4"/>
		<line class="st2" x1="48" y1="611.8" x2="73.3" y2="586.5"/>
		<line class="st2" x1="537.4" y1="871.8" x2="562.8" y2="846.5"/>
	</g>
	<path class="st0" d="M326.6,1009.4c-2.9,1.8-6.8,1-8.6-2c-1.8-2.9-1-6.8,2-8.6c2.9-1.8,6.8-1,8.6,2
		C330.4,1003.6,329.5,1007.5,326.6,1009.4z"/>
	<path class="st0" d="M277.2,836.9c-2.9,1.8-6.8,1-8.6-2c-1.8-2.9-1-6.8,2-8.6c2.9-1.8,6.8-1,8.6,2
		C281,831.2,280.1,835.1,277.2,836.9z"/>
	<path class="st0" d="M51.3,890c-2.9,1.8-6.8,1-8.6-2c-1.8-2.9-1-6.8,2-8.6c2.9-1.8,6.8-1,8.6,2C55.1,884.2,54.2,888.1,51.3,890z"/>
	<path class="st0" d="M115.5,692.7c-2.9,1.8-6.8,1-8.6-2c-1.8-2.9-1-6.8,2-8.6c2.9-1.8,6.8-1,8.6,2
		C119.3,687,118.4,690.8,115.5,692.7z"/>
	<path class="st0" d="M460.3,689.6c-2.9,1.8-6.8,1-8.6-2c-1.8-2.9-1-6.8,2-8.6c2.9-1.8,6.8-1,8.6,2
		C464.1,683.8,463.2,687.7,460.3,689.6z"/>
	<path class="st0" d="M548.8,912.9c-2.9,1.8-6.8,1-8.6-2c-1.8-2.9-1-6.8,2-8.6c2.9-1.8,6.8-1,8.6,2
		C552.7,907.2,551.8,911,548.8,912.9z"/>
</g>
<g>
	<g>
		<line class="st0" x1="758.1" y1="679.5" x2="742.9" y2="665.2"/>
		<line class="st0" x1="743.3" y1="680" x2="757.7" y2="664.7"/>
	</g>
	<g>
		<line class="st0" x1="775.6" y1="899" x2="760.4" y2="884.7"/>
		<line class="st0" x1="760.9" y1="899.4" x2="775.2" y2="884.2"/>
	</g>
	<g>
		<line class="st0" x1="590.1" y1="1021.6" x2="574.8" y2="1007.3"/>
		<line class="st0" x1="575.3" y1="1022" x2="589.6" y2="1006.8"/>
	</g>
	<g>
		<line class="st0" x1="583.4" y1="658.6" x2="568.1" y2="644.3"/>
		<line class="st0" x1="568.6" y1="659.1" x2="582.9" y2="643.9"/>
	</g>
	<g>
		<line class="st0" x1="1125.8" y1="679.1" x2="1110.6" y2="664.8"/>
		<line class="st0" x1="1111" y1="679.6" x2="1125.3" y2="664.4"/>
	</g>
	<g>
		<line class="st0" x1="945.9" y1="757" x2="930.6" y2="742.6"/>
		<line class="st0" x1="931.1" y1="757.4" x2="945.4" y2="742.2"/>
	</g>
	<g>
		<line class="st0" x1="1020.2" y1="926.8" x2="1005" y2="912.5"/>
		<line class="st0" x1="1005.5" y1="927.2" x2="1019.8" y2="912"/>
	</g>
	<g>
		<line class="st0" x1="1008.4" y1="1065.1" x2="993.1" y2="1050.8"/>
		<line class="st0" x1="993.6" y1="1065.6" x2="1007.9" y2="1050.3"/>
	</g>
	<polygon class="st0" points="871.5,702.4 861,684.3 850.5,702.4 840,720.6 861,720.6 882,720.6 	"/>
	<polygon class="st0" points="836.7,924.4 826.2,906.3 815.8,924.4 805.3,942.6 826.3,942.6 847.2,942.6 	"/>
	<polygon class="st0" points="957.1,992.6 946.6,974.4 936.1,992.6 925.6,1010.8 946.6,1010.8 967.6,1010.8 	"/>
	<polygon class="st0" points="1026.3,853.2 1031.7,832.9 1011.5,838.3 991.2,843.8 1006.1,858.6 1020.9,873.4 	"/>
	<polygon class="st0" points="681.4,617.9 686.8,597.6 666.5,603 646.3,608.5 661.1,623.3 676,638.1 	"/>
	<polygon class="st0" points="667,1055.8 672.4,1035.5 652.2,1041 631.9,1046.4 646.8,1061.2 661.6,1076 	"/>
	<polygon class="st0" points="1047.6,640.5 1065.7,630 1047.5,619.5 1029.4,609.1 1029.4,630 1029.4,651 	"/>
	<polygon class="st0" points="666.6,850.1 684.7,839.6 666.5,829.1 648.4,818.6 648.4,839.6 648.4,860.6 	"/>
	<path class="st0" d="M906.9,815.7c0,8.8-7.1,15.9-15.9,15.9c-8.8,0-15.9-7.1-15.9-15.9c0-8.8,7.1-15.9,15.9-15.9
		C899.8,799.8,906.9,806.9,906.9,815.7z"/>
	<path class="st0" d="M826.5,638.1c0,8.8-7.1,15.9-15.9,15.9c-8.8,0-15.9-7.1-15.9-15.9c0-8.8,7.1-15.9,15.9-15.9
		C819.4,622.2,826.5,629.3,826.5,638.1z"/>
	<path class="st0" d="M836.7,1107.8c0,8.8-7.1,15.9-15.9,15.9s-15.9-7.1-15.9-15.9s7.1-15.9,15.9-15.9S836.7,1099,836.7,1107.8z"/>
	<path class="st0" d="M879.2,1084c0-8.8,7.1-15.9,15.9-15.9c8.8,0,15.9,7.1,15.9,15.9"/>
	<path class="st0" d="M752.2,839.6c0-8.8,7.1-15.9,15.9-15.9s15.9,7.1,15.9,15.9"/>
	<path class="st0" d="M584.8,710.4c0-8.8,7.1-15.9,15.8-15.9s15.8,7.1,15.8,15.9"/>
	<path class="st0" d="M985.9,736.4c-8.8,0-15.9-7.1-15.9-15.8s7.1-15.8,15.9-15.8"/>
	<path class="st0" d="M602.7,1107.7c-8.8,0-15.9-7.1-15.9-15.8s7.1-15.8,15.9-15.8"/>
	<path class="st0" d="M773.5,601.6c-8.8,0-15.9-7.1-15.9-15.8s7.1-15.8,15.9-15.8"/>
	<path class="st0" d="M610.7,940.3c0,8.8-7.1,15.9-15.9,15.9s-15.9-7.1-15.9-15.9c0-8.8,7.1-15.9,15.9-15.9S610.7,931.6,610.7,940.3
		z"/>
	<path class="st0" d="M1101.4,958.5c0,8.8-7.1,15.9-15.9,15.9s-15.9-7.1-15.9-15.9c0-8.8,7.1-15.9,15.9-15.9
		S1101.4,949.7,1101.4,958.5z"/>
	<rect x="1057.4" y="704.8" class="st0" width="31.7" height="31.7"/>
	<rect x="699.5" y="720.6" class="st0" width="31.7" height="31.7"/>
	<rect x="697.9" y="922.7" class="st0" width="31.7" height="31.7"/>
	<rect x="1057.4" y="1076" class="st0" width="31.7" height="31.7"/>
	<rect x="926.1" y="570" class="st0" width="31.7" height="31.7"/>
	<g>
		<path class="st0" d="M880.6,891.8c-6.9,0-5.7-12.3-14.5-12.3"/>
		<path class="st0" d="M909.7,891.8c-6.9,0-5.7-12.3-14.5-12.3"/>
		<path class="st0" d="M880.6,891.8c6.9,0,5.7-12.3,14.5-12.3"/>
		<path class="st0" d="M924.2,879.6"/>
		<path class="st0" d="M909.7,891.8c6.9,0,5.7-12.3,14.5-12.3"/>
	</g>
	<g>
		<path class="st0" d="M963.4,1120c-6.9,0-5.7-12.3-14.5-12.3"/>
		<path class="st0" d="M992.5,1120c-6.9,0-5.7-12.3-14.5-12.3"/>
		<path class="st0" d="M963.4,1120c6.9,0,5.7-12.3,14.5-12.3"/>
		<path class="st0" d="M1007,1107.8"/>
		<path class="st0" d="M992.5,1120c6.9,0,5.7-12.3,14.5-12.3"/>
	</g>
	<g>
		<path class="st0" d="M1003.1,791c-6.9,0-5.7-12.3-14.5-12.3"/>
		<path class="st0" d="M1032.1,791c-6.9,0-5.7-12.3-14.5-12.3"/>
		<path class="st0" d="M1003.1,791c6.9,0,5.7-12.3,14.5-12.3"/>
		<path class="st0" d="M1046.7,778.7"/>
		<path class="st0" d="M1032.1,791c6.9,0,5.7-12.3,14.5-12.3"/>
	</g>
	<g>
		<path class="st0" d="M598.8,776.2c-6.9,0-5.7-12.3-14.5-12.3"/>
		<path class="st0" d="M627.9,776.2c-6.9,0-5.7-12.3-14.5-12.3"/>
		<path class="st0" d="M598.8,776.2c6.9,0,5.7-12.3,14.5-12.3"/>
		<path class="st0" d="M642.4,763.9"/>
		<path class="st0" d="M627.9,776.2c6.9,0,5.7-12.3,14.5-12.3"/>
	</g>
	<g>
		<path class="st0" d="M883,612.1c0,6.9-12.3,5.7-12.3,14.5"/>
		<path class="st0" d="M883,583.1c0,6.9-12.3,5.7-12.3,14.5"/>
		<path class="st0" d="M883,612.1c0-6.9-12.3-5.7-12.3-14.5"/>
		<path class="st0" d="M870.8,568.5"/>
		<path class="st0" d="M883,583.1c0-6.9-12.3-5.7-12.3-14.5"/>
	</g>
	<g>
		<path class="st0" d="M793.9,764.2c0,6.9-12.3,5.7-12.3,14.5"/>
		<path class="st0" d="M793.9,735.1c0,6.9-12.3,5.7-12.3,14.5"/>
		<path class="st0" d="M793.9,764.2c0-6.9-12.3-5.7-12.3-14.5"/>
		<path class="st0" d="M781.6,720.6"/>
		<path class="st0" d="M793.9,735.1c0-6.9-12.3-5.7-12.3-14.5"/>
	</g>
	<g>
		<path class="st0" d="M1035.5,1007.1c0,6.9-12.3,5.7-12.3,14.5"/>
		<path class="st0" d="M1035.5,978.1c0,6.9-12.3,5.7-12.3,14.5"/>
		<path class="st0" d="M1035.5,1007.1c0-6.9-12.3-5.7-12.3-14.5"/>
		<path class="st0" d="M1023.2,963.5"/>
		<path class="st0" d="M1035.5,978.1c0-6.9-12.3-5.7-12.3-14.5"/>
	</g>
	<g>
		<path class="st0" d="M735.7,1030c0,6.9-12.3,5.7-12.3,14.5"/>
		<path class="st0" d="M735.7,1001c0,6.9-12.3,5.7-12.3,14.5"/>
		<path class="st0" d="M735.7,1030c0-6.9-12.3-5.7-12.3-14.5"/>
		<path class="st0" d="M723.4,986.4"/>
		<path class="st0" d="M735.7,1001c0-6.9-12.3-5.7-12.3-14.5"/>
	</g>
	<line class="st0" x1="915.4" y1="924.4" x2="951.3" y2="924.4"/>
	<line class="st0" x1="562.8" y1="820.8" x2="598.7" y2="820.8"/>
	<line class="st0" x1="918.1" y1="654" x2="954" y2="654"/>
	<line class="st0" x1="1059.5" y1="573.1" x2="1095.4" y2="573.1"/>
	<line class="st0" x1="705.8" y1="1107.7" x2="741.7" y2="1107.7"/>
	<line class="st0" x1="797.9" y1="1038.4" x2="823.3" y2="1013.1"/>
	<line class="st0" x1="588" y1="598.5" x2="613.3" y2="573.1"/>
	<line class="st0" x1="1077.4" y1="858.5" x2="1102.8" y2="833.1"/>
	<g class="st1">
		<polygon class="st2" points="894.3,715.8 883.8,697.6 873.3,715.8 862.8,734 883.8,733.9 904.8,733.9 		"/>
		<polygon class="st2" points="859.6,937.8 849.1,919.6 838.6,937.8 828.1,956 849.1,955.9 870.1,955.9 		"/>
		<polygon class="st2" points="979.9,1006 969.4,987.8 958.9,1006 948.5,1024.1 969.4,1024.1 990.4,1024.1 		"/>
		<polygon class="st2" points="1049.1,866.5 1054.5,846.3 1034.3,851.7 1014,857.1 1028.9,872 1043.7,886.8 		"/>
		<polygon class="st2" points="704.2,631.2 709.6,611 689.4,616.4 669.1,621.9 683.9,636.7 698.8,651.5 		"/>
		<polygon class="st2" points="689.8,1069.1 695.3,1048.9 675,1054.3 654.7,1059.8 669.6,1074.6 684.4,1089.4 		"/>
		<polygon class="st2" points="1070.4,653.9 1088.5,643.4 1070.4,632.9 1052.2,622.4 1052.2,643.4 1052.2,664.4 		"/>
		<polygon class="st2" points="689.4,863.4 707.5,852.9 689.4,842.5 671.2,832 671.2,852.9 671.2,873.9 		"/>
		<path class="st2" d="M929.7,829.1c0,8.8-7.1,15.9-15.9,15.9c-8.8,0-15.9-7.1-15.9-15.9c0-8.8,7.1-15.9,15.9-15.9
			C922.6,813.2,929.7,820.3,929.7,829.1z"/>
		<path class="st2" d="M849.3,651.5c0,8.8-7.1,15.9-15.9,15.9s-15.9-7.1-15.9-15.9c0-8.8,7.1-15.9,15.9-15.9
			S849.3,642.7,849.3,651.5z"/>
		<path class="st2" d="M859.5,1121.1c0,8.8-7.1,15.9-15.9,15.9c-8.8,0-15.9-7.1-15.9-15.9s7.1-15.9,15.9-15.9
			S859.5,1112.4,859.5,1121.1z"/>
		<path class="st2" d="M902,1097.4c0-8.8,7.1-15.9,15.9-15.9c8.8,0,15.9,7.1,15.9,15.9"/>
		<path class="st2" d="M775,852.9c0-8.8,7.1-15.9,15.9-15.9c8.8,0,15.9,7.1,15.9,15.9"/>
		<path class="st2" d="M607.6,723.7c0-8.8,7.1-15.9,15.8-15.9s15.8,7.1,15.8,15.9"/>
		<path class="st2" d="M1008.7,749.8c-8.8,0-15.9-7.1-15.9-15.8s7.1-15.8,15.9-15.8"/>
		<path class="st2" d="M625.6,1121.1c-8.8,0-15.9-7.1-15.9-15.8c0-8.7,7.1-15.8,15.9-15.8"/>
		<path class="st2" d="M796.3,615c-8.8,0-15.9-7.1-15.9-15.8s7.1-15.8,15.9-15.8"/>
		<path class="st2" d="M633.5,953.7c0,8.8-7.1,15.9-15.9,15.9c-8.8,0-15.9-7.1-15.9-15.9c0-8.8,7.1-15.9,15.9-15.9
			S633.5,944.9,633.5,953.7z"/>
		<path class="st2" d="M1124.2,971.9c0,8.8-7.1,15.9-15.9,15.9s-15.9-7.1-15.9-15.9c0-8.8,7.1-15.9,15.9-15.9
			S1124.2,963.1,1124.2,971.9z"/>
		<rect x="1080.2" y="718.1" class="st2" width="31.7" height="31.7"/>
		<rect x="722.3" y="734" class="st2" width="31.7" height="31.7"/>
		<rect x="720.7" y="936" class="st2" width="31.7" height="31.7"/>
		<rect x="1080.2" y="1089.4" class="st2" width="31.7" height="31.7"/>
		<rect x="948.9" y="583.3" class="st2" width="31.7" height="31.7"/>
		<g>
			<path class="st2" d="M903.4,905.2c-6.9,0-5.7-12.3-14.5-12.3"/>
			<path class="st2" d="M932.5,905.2c-6.9,0-5.7-12.3-14.5-12.3"/>
			<path class="st2" d="M903.4,905.2c6.9,0,5.7-12.3,14.5-12.3"/>
			<path class="st2" d="M947,892.9"/>
			<path class="st2" d="M932.5,905.2c6.9,0,5.7-12.3,14.5-12.3"/>
		</g>
		<g>
			<path class="st2" d="M986.2,1133.4c-6.9,0-5.7-12.3-14.5-12.3"/>
			<path class="st2" d="M1015.3,1133.4c-6.9,0-5.7-12.3-14.5-12.3"/>
			<path class="st2" d="M986.2,1133.4c6.9,0,5.7-12.3,14.5-12.3"/>
			<path class="st2" d="M1029.8,1121.1"/>
			<path class="st2" d="M1015.3,1133.4c6.9,0,5.7-12.3,14.5-12.3"/>
		</g>
		<g>
			<path class="st2" d="M1025.9,804.4c-6.9,0-5.7-12.3-14.5-12.3"/>
			<path class="st2" d="M1055,804.4c-6.9,0-5.7-12.3-14.5-12.3"/>
			<path class="st2" d="M1025.9,804.4c6.9,0,5.7-12.3,14.5-12.3"/>
			<path class="st2" d="M1069.5,792.1"/>
			<path class="st2" d="M1055,804.4c6.9,0,5.7-12.3,14.5-12.3"/>
		</g>
		<g>
			<path class="st2" d="M621.6,789.6c-6.9,0-5.7-12.3-14.5-12.3"/>
			<path class="st2" d="M650.7,789.6c-6.9,0-5.7-12.3-14.5-12.3"/>
			<path class="st2" d="M621.6,789.6c6.9,0,5.7-12.3,14.5-12.3"/>
			<path class="st2" d="M665.2,777.3"/>
			<path class="st2" d="M650.7,789.6c6.9,0,5.7-12.3,14.5-12.3"/>
		</g>
		<g>
			<path class="st2" d="M905.8,625.5c0,6.9-12.3,5.7-12.3,14.5"/>
			<path class="st2" d="M905.8,596.4c0,6.9-12.3,5.7-12.3,14.5"/>
			<path class="st2" d="M905.8,625.5c0-6.9-12.3-5.7-12.3-14.5"/>
			<path class="st2" d="M893.6,581.9"/>
			<path class="st2" d="M905.8,596.4c0-6.9-12.3-5.7-12.3-14.5"/>
		</g>
		<g>
			<path class="st2" d="M816.7,777.6c0,6.9-12.3,5.7-12.3,14.5"/>
			<path class="st2" d="M816.7,748.5c0,6.9-12.3,5.7-12.3,14.5"/>
			<path class="st2" d="M816.7,777.6c0-6.9-12.3-5.7-12.3-14.5"/>
			<path class="st2" d="M804.4,734"/>
			<path class="st2" d="M816.7,748.5c0-6.9-12.3-5.7-12.3-14.5"/>
		</g>
		<g>
			<path class="st2" d="M1058.3,1020.5c0,6.9-12.3,5.7-12.3,14.5"/>
			<path class="st2" d="M1058.3,991.4c0,6.9-12.3,5.7-12.3,14.5"/>
			<path class="st2" d="M1058.3,1020.5c0-6.9-12.3-5.7-12.3-14.5"/>
			<path class="st2" d="M1046.1,976.9"/>
			<path class="st2" d="M1058.3,991.4c0-6.9-12.3-5.7-12.3-14.5"/>
		</g>
		<g>
			<path class="st2" d="M758.5,1043.4c0,6.9-12.3,5.7-12.3,14.5"/>
			<path class="st2" d="M758.5,1014.3c0,6.9-12.3,5.7-12.3,14.5"/>
			<path class="st2" d="M758.5,1043.4c0-6.9-12.3-5.7-12.3-14.5"/>
			<path class="st2" d="M746.3,999.8"/>
			<path class="st2" d="M758.5,1014.3c0-6.9-12.3-5.7-12.3-14.5"/>
		</g>
		<line class="st2" x1="938.3" y1="937.8" x2="974.1" y2="937.8"/>
		<line class="st2" x1="585.6" y1="834.1" x2="621.5" y2="834.1"/>
		<line class="st2" x1="940.9" y1="667.4" x2="976.8" y2="667.4"/>
		<line class="st2" x1="1082.3" y1="586.5" x2="1118.2" y2="586.5"/>
		<line class="st2" x1="728.6" y1="1121.1" x2="764.5" y2="1121.1"/>
		<line class="st2" x1="820.7" y1="1051.8" x2="846.1" y2="1026.4"/>
		<line class="st2" x1="610.8" y1="611.8" x2="636.1" y2="586.5"/>
		<line class="st2" x1="1100.3" y1="871.8" x2="1125.6" y2="846.5"/>
	</g>
	<path class="st0" d="M889.4,1009.4c-2.9,1.8-6.8,1-8.6-2c-1.8-2.9-1-6.8,2-8.6c2.9-1.8,6.8-1,8.6,2
		C893.2,1003.6,892.3,1007.5,889.4,1009.4z"/>
	<path class="st0" d="M840,836.9c-2.9,1.8-6.8,1-8.6-2c-1.8-2.9-1-6.8,2-8.6c2.9-1.8,6.8-1,8.6,2C843.8,831.2,842.9,835.1,840,836.9
		z"/>
	<path class="st0" d="M614.1,890c-2.9,1.8-6.8,1-8.6-2c-1.8-2.9-1-6.8,2-8.6c2.9-1.8,6.8-1,8.6,2C617.9,884.2,617,888.1,614.1,890z"
		/>
	<path class="st0" d="M678.3,692.7c-2.9,1.8-6.8,1-8.6-2c-1.8-2.9-1-6.8,2-8.6c2.9-1.8,6.8-1,8.6,2
		C682.1,687,681.3,690.8,678.3,692.7z"/>
	<path class="st0" d="M1023.1,689.6c-2.9,1.8-6.8,1-8.6-2c-1.8-2.9-1-6.8,2-8.6c2.9-1.8,6.8-1,8.6,2
		C1026.9,683.8,1026,687.7,1023.1,689.6z"/>
	<path class="st0" d="M1111.7,912.9c-2.9,1.8-6.8,1-8.6-2c-1.8-2.9-1-6.8,2-8.6c2.9-1.8,6.8-1,8.6,2
		C1115.5,907.2,1114.6,911,1111.7,912.9z"/>
</g>
</svg>
