<?xml version="1.0" encoding="utf-8"?>
<!-- Generator: Adobe Illustrator 25.2.1, SVG Export Plug-In . SVG Version: 6.00 Build 0)  -->
<svg version="1.1" id="Layer_1" xmlns="http://www.w3.org/2000/svg" xmlns:xlink="http://www.w3.org/1999/xlink" x="0px" y="0px"
	 viewBox="0 0 1125.6 1137.1" style="enable-background:new 0 0 1125.6 1137.1;" xml:space="preserve">
<style type="text/css">
	.st0{fill:none;stroke:#000000;stroke-width:9.9697;stroke-linecap:round;stroke-linejoin:round;stroke-miterlimit:10;}
	.st1{opacity:0.3;}
	.st2{fill:none;stroke:#000000;stroke-width:1.9939;stroke-miterlimit:10;}
</style>
<g>
	<g>
		<line class="st0" x1="390.9" y1="223.1" x2="360.6" y2="194.6"/>
		<line class="st0" x1="361.4" y1="224.1" x2="389.9" y2="193.6"/>
	</g>
	<g>
		<line class="st0" x1="425.8" y1="660.6" x2="395.5" y2="632.1"/>
		<line class="st0" x1="396.5" y1="661.6" x2="425" y2="631.3"/>
	</g>
	<g>
		<line class="st0" x1="55.7" y1="905" x2="25.4" y2="876.5"/>
		<line class="st0" x1="26.4" y1="906" x2="54.9" y2="875.7"/>
	</g>
	<g>
		<line class="st0" x1="42.6" y1="181.4" x2="12.1" y2="152.9"/>
		<line class="st0" x1="13.1" y1="182.4" x2="41.6" y2="151.9"/>
	</g>
	<g>
		<line class="st0" x1="1124.1" y1="222.3" x2="1093.8" y2="193.8"/>
		<line class="st0" x1="1094.6" y1="223.3" x2="1123.1" y2="192.8"/>
	</g>
	<g>
		<line class="st0" x1="765.4" y1="377.4" x2="734.9" y2="348.9"/>
		<line class="st0" x1="735.9" y1="378.4" x2="764.4" y2="347.9"/>
	</g>
	<g>
		<line class="st0" x1="913.5" y1="716" x2="883.2" y2="687.5"/>
		<line class="st0" x1="884.2" y1="717" x2="912.7" y2="686.7"/>
	</g>
	<g>
		<line class="st0" x1="890" y1="992" x2="859.5" y2="963.5"/>
		<line class="st0" x1="860.5" y1="992.8" x2="889" y2="962.5"/>
	</g>
	<polygon class="st0" points="617,268.8 596.1,232.5 575.2,268.8 554.2,305.1 596.1,305.1 638,304.9 	"/>
	<polygon class="st0" points="547.6,711.4 526.7,675.1 506,711.4 485,747.7 526.9,747.7 568.6,747.5 	"/>
	<polygon class="st0" points="787.7,847.4 766.8,811.1 745.8,847.4 724.9,883.5 766.8,883.5 808.7,883.5 	"/>
	<polygon class="st0" points="925.7,569.2 936.5,529 896.2,539.7 855.7,550.7 885.2,580.2 914.9,609.7 	"/>
	<polygon class="st0" points="238,100.1 248.8,59.8 208.3,70.6 168,81.5 197.5,111 227.2,140.6 	"/>
	<polygon class="st0" points="209.3,973.4 220,932.9 179.8,943.7 139.3,954.7 169,984.2 198.5,1013.7 	"/>
	<polygon class="st0" points="968,145.3 1004.3,124.4 968,103.5 931.9,82.5 931.9,124.4 931.9,166.3 	"/>
	<polygon class="st0" points="208.3,563.1 244.6,542.1 208.3,521.4 172.2,500.5 172.2,542.3 172.2,584 	"/>
	<path class="st0" d="M687.6,494.7c0,17.5-14.2,31.7-31.7,31.7c-17.5,0-31.7-14.2-31.7-31.7c0-17.5,14.2-31.7,31.7-31.7
		C673.5,463,687.6,477.1,687.6,494.7z"/>
	<path class="st0" d="M527.3,140.6c0,17.5-14.2,31.7-31.7,31.7c-17.5,0-31.7-14.2-31.7-31.7s14.2-31.7,31.7-31.7
		C513.2,108.8,527.3,123,527.3,140.6z"/>
	<path class="st0" d="M547.6,1077.1c0,17.5-14.2,31.7-31.7,31.7s-31.7-14.2-31.7-31.7c0-17.5,14.2-31.7,31.7-31.7
		C533.3,1045.2,547.6,1059.6,547.6,1077.1z"/>
	<path class="st0" d="M632.4,1029.6c0-17.5,14.2-31.7,31.7-31.7c17.5,0,31.7,14.2,31.7,31.7"/>
	<path class="st0" d="M379.2,542.3c0-17.5,14.2-31.7,31.7-31.7c17.5,0,31.7,14.2,31.7,31.7"/>
	<path class="st0" d="M45.4,284.7c0-17.5,14.2-31.7,31.5-31.7s31.5,14.2,31.5,31.7"/>
	<path class="st0" d="M845.1,336.6c-17.5,0-31.7-14.2-31.7-31.5c0-17.3,14.2-31.5,31.7-31.5"/>
	<path class="st0" d="M81.1,1076.9c-17.5,0-31.7-14.2-31.7-31.5s14.2-31.5,31.7-31.5"/>
	<path class="st0" d="M421.6,67.8c-17.5,0-31.7-14.2-31.7-31.5s14.2-31.5,31.7-31.5"/>
	<path class="st0" d="M97,743.1c0,17.5-14.2,31.7-31.7,31.7s-31.7-14.2-31.7-31.7c0-17.5,14.2-31.7,31.7-31.7S97,725.6,97,743.1z"/>
	<path class="st0" d="M1075.4,779.4c0,17.5-14.2,31.7-31.7,31.7c-17.5,0-31.7-14.2-31.7-31.7c0-17.5,14.2-31.7,31.7-31.7
		C1061.3,747.7,1075.4,761.9,1075.4,779.4z"/>
	<rect x="987.7" y="273.3" class="st0" width="63.2" height="63.2"/>
	<rect x="274.1" y="305.1" class="st0" width="63.2" height="63.2"/>
	<rect x="270.9" y="708" class="st0" width="63.2" height="63.2"/>
	<rect x="987.7" y="1013.7" class="st0" width="63.2" height="63.2"/>
	<rect x="725.9" y="4.6" class="st0" width="63.2" height="63.2"/>
	<g>
		<path class="st0" d="M635.2,646.4c-13.8,0-11.4-24.5-28.9-24.5"/>
		<path class="st0" d="M693.2,646.4c-13.8,0-11.4-24.5-28.9-24.5"/>
		<path class="st0" d="M635.2,646.4c13.8,0,11.4-24.5,28.9-24.5"/>
		<path class="st0" d="M722.1,621.9"/>
		<path class="st0" d="M693.2,646.4c13.8,0,11.4-24.5,28.9-24.5"/>
	</g>
	<g>
		<path class="st0" d="M800.3,1101.4c-13.8,0-11.4-24.5-28.9-24.5"/>
		<path class="st0" d="M858.3,1101.4c-13.8,0-11.4-24.5-28.9-24.5"/>
		<path class="st0" d="M800.3,1101.4c13.8,0,11.4-24.5,28.9-24.5"/>
		<path class="st0" d="M887.2,1077.1"/>
		<path class="st0" d="M858.3,1101.4c13.8,0,11.4-24.5,28.9-24.5"/>
	</g>
	<g>
		<path class="st0" d="M879.4,445.4c-13.8,0-11.4-24.5-28.9-24.5"/>
		<path class="st0" d="M937.3,445.4c-13.8,0-11.4-24.5-28.9-24.5"/>
		<path class="st0" d="M879.4,445.4c13.8,0,11.4-24.5,28.9-24.5"/>
		<path class="st0" d="M966.4,420.9"/>
		<path class="st0" d="M937.3,445.4c13.8,0,11.4-24.5,28.9-24.5"/>
	</g>
	<g>
		<path class="st0" d="M73.3,415.9c-13.8,0-11.4-24.5-28.9-24.5"/>
		<path class="st0" d="M131.1,415.9c-13.8,0-11.4-24.5-28.9-24.5"/>
		<path class="st0" d="M73.3,415.9c13.8,0,11.4-24.5,28.9-24.5"/>
		<path class="st0" d="M160.2,391.4"/>
		<path class="st0" d="M131.1,415.9c13.8,0,11.4-24.5,28.9-24.5"/>
	</g>
	<g>
		<path class="st0" d="M640,88.7c0,13.8-24.5,11.4-24.5,28.9"/>
		<path class="st0" d="M640,30.7c0,13.8-24.5,11.4-24.5,28.9"/>
		<path class="st0" d="M640,88.7c0-13.8-24.5-11.4-24.5-28.9"/>
		<path class="st0" d="M615.4,1.8"/>
		<path class="st0" d="M640,30.7c0-13.8-24.5-11.4-24.5-28.9"/>
	</g>
	<g>
		<path class="st0" d="M462.3,392c0,13.8-24.5,11.4-24.5,28.9"/>
		<path class="st0" d="M462.3,334c0,13.8-24.5,11.4-24.5,28.9"/>
		<path class="st0" d="M462.3,392c0-13.8-24.5-11.4-24.5-28.9"/>
		<path class="st0" d="M437.8,305.1"/>
		<path class="st0" d="M462.3,334c0-13.8-24.5-11.4-24.5-28.9"/>
	</g>
	<g>
		<path class="st0" d="M944,876.3c0,13.8-24.5,11.4-24.5,28.9"/>
		<path class="st0" d="M944,818.3c0,13.8-24.5,11.4-24.5,28.9"/>
		<path class="st0" d="M944,876.3c0-13.8-24.5-11.4-24.5-28.9"/>
		<path class="st0" d="M919.5,789.4"/>
		<path class="st0" d="M944,818.3c0-13.8-24.5-11.4-24.5-28.9"/>
	</g>
	<g>
		<path class="st0" d="M346.3,922c0,13.8-24.5,11.4-24.5,28.9"/>
		<path class="st0" d="M346.3,864c0,13.8-24.5,11.4-24.5,28.9"/>
		<path class="st0" d="M346.3,922c0-13.8-24.5-11.4-24.5-28.9"/>
		<path class="st0" d="M321.7,835"/>
		<path class="st0" d="M346.3,864c0-13.8-24.5-11.4-24.5-28.9"/>
	</g>
	<line class="st0" x1="704.6" y1="711.4" x2="776.2" y2="711.4"/>
	<line class="st0" x1="1.5" y1="504.6" x2="73.1" y2="504.6"/>
	<line class="st0" x1="710" y1="172.3" x2="781.5" y2="172.3"/>
	<line class="st0" x1="991.9" y1="10.9" x2="1063.5" y2="10.9"/>
	<line class="st0" x1="286.6" y1="1076.9" x2="358.2" y2="1076.9"/>
	<line class="st0" x1="470.3" y1="938.7" x2="520.9" y2="888.1"/>
	<line class="st0" x1="51.6" y1="61.4" x2="102.2" y2="10.9"/>
	<line class="st0" x1="1027.6" y1="579.8" x2="1078.2" y2="529.4"/>
	<g class="st1">
		<polygon class="st2" points="662.5,295.3 641.6,259.2 620.6,295.5 599.7,331.6 641.6,331.6 683.4,331.6 		"/>
		<polygon class="st2" points="593.3,737.9 572.2,701.8 551.4,738.1 530.5,774.2 572.4,774.2 614.2,774.2 		"/>
		<polygon class="st2" points="833.2,873.9 812.2,837.8 791.3,873.9 770.4,910.2 812.2,910.2 854.1,910.2 		"/>
		<polygon class="st2" points="971.2,596 981.9,555.5 941.6,566.5 901.2,577.2 930.9,606.7 960.4,636.4 		"/>
		<polygon class="st2" points="283.4,126.8 294.2,86.3 253.9,97.3 213.5,108 243,137.6 272.7,167.3 		"/>
		<polygon class="st2" points="254.7,999.9 265.5,959.5 225.2,970.4 184.7,981.2 214.5,1010.7 244,1040.4 		"/>
		<polygon class="st2" points="1013.6,171.9 1049.7,150.9 1013.6,130.2 977.3,109.2 977.3,151.1 977.3,192.8 		"/>
		<polygon class="st2" points="253.9,589.8 290,568.8 253.7,547.9 217.6,527 217.6,568.8 217.6,610.7 		"/>
		<path class="st2" d="M733.1,521.2c0,17.5-14.2,31.7-31.7,31.7s-31.7-14.2-31.7-31.7c0-17.5,14.2-31.7,31.7-31.7
			S733.1,503.8,733.1,521.2z"/>
		<path class="st2" d="M572.8,167.3c0,17.5-14.2,31.7-31.7,31.7c-17.5,0-31.7-14.2-31.7-31.7s14.2-31.7,31.7-31.7
			C558.6,135.6,572.8,149.7,572.8,167.3z"/>
		<path class="st2" d="M593.1,1103.6c0,17.5-14.2,31.7-31.7,31.7c-17.5,0-31.7-14.2-31.7-31.7c0-17.5,14.2-31.7,31.7-31.7
			C578.8,1071.9,593.1,1086.1,593.1,1103.6z"/>
		<path class="st2" d="M677.9,1056.2c0-17.5,14.2-31.7,31.7-31.7s31.7,14.2,31.7,31.7"/>
		<path class="st2" d="M424.6,568.8c0-17.5,14.2-31.7,31.7-31.7c17.5,0,31.7,14.2,31.7,31.7"/>
		<path class="st2" d="M90.8,311.2c0-17.5,14.2-31.7,31.5-31.7s31.5,14.2,31.5,31.7"/>
		<path class="st2" d="M890.6,363.3c-17.5,0-31.7-14.2-31.7-31.5s14.2-31.5,31.7-31.5"/>
		<path class="st2" d="M126.5,1103.4c-17.5,0-31.7-14.2-31.7-31.5c0-17.3,14.2-31.5,31.7-31.5"/>
		<path class="st2" d="M467.1,94.5c-17.5,0-31.7-14.2-31.7-31.5s14.2-31.5,31.7-31.5"/>
		<path class="st2" d="M142.5,769.8c0,17.5-14.2,31.7-31.7,31.7s-31.7-14.2-31.7-31.7s14.2-31.7,31.7-31.7
			C128.3,738.1,142.5,752.3,142.5,769.8z"/>
		<path class="st2" d="M1120.9,805.9c0,17.5-14.2,31.7-31.7,31.7c-17.5,0-31.7-14.2-31.7-31.7c0-17.5,14.2-31.7,31.7-31.7
			C1106.7,774.2,1120.9,788.6,1120.9,805.9z"/>
		<rect x="1033.2" y="300.1" class="st2" width="63.2" height="63.2"/>
		<rect x="319.5" y="331.6" class="st2" width="63.2" height="63.2"/>
		<rect x="316.3" y="734.5" class="st2" width="63.2" height="63.2"/>
		<rect x="1033.2" y="1040.4" class="st2" width="63.2" height="63.2"/>
		<rect x="771.4" y="31.3" class="st2" width="63.2" height="63.2"/>
		<g>
			<path class="st2" d="M680.6,672.9c-13.8,0-11.4-24.5-28.9-24.5"/>
			<path class="st2" d="M738.7,672.9c-13.8,0-11.4-24.5-28.9-24.5"/>
			<path class="st2" d="M680.6,672.9c13.8,0,11.4-24.5,28.9-24.5"/>
			<path class="st2" d="M767.6,648.6"/>
			<path class="st2" d="M738.7,672.9c13.8,0,11.4-24.5,28.9-24.5"/>
		</g>
		<g>
			<path class="st2" d="M845.7,1128.2c-13.8,0-11.4-24.5-28.9-24.5"/>
			<path class="st2" d="M903.8,1128.2c-13.8,0-11.4-24.5-28.9-24.5"/>
			<path class="st2" d="M845.7,1128.2c13.8,0,11.4-24.5,28.9-24.5"/>
			<path class="st2" d="M932.7,1103.6"/>
			<path class="st2" d="M903.8,1128.2c13.8,0,11.4-24.5,28.9-24.5"/>
		</g>
		<g>
			<path class="st2" d="M924.9,471.9c-13.8,0-11.4-24.5-28.9-24.5"/>
			<path class="st2" d="M982.7,471.9c-13.8,0-11.4-24.5-28.9-24.5"/>
			<path class="st2" d="M924.9,471.9c13.8,0,11.4-24.5,28.9-24.5"/>
			<path class="st2" d="M1011.8,447.6"/>
			<path class="st2" d="M982.7,471.9c13.8,0,11.4-24.5,28.9-24.5"/>
		</g>
		<g>
			<path class="st2" d="M118.7,442.4c-13.8,0-11.4-24.5-28.9-24.5"/>
			<path class="st2" d="M176.8,442.4c-13.8,0-11.4-24.5-28.9-24.5"/>
			<path class="st2" d="M118.7,442.4c13.8,0,11.4-24.5,28.9-24.5"/>
			<path class="st2" d="M205.7,418.1"/>
			<path class="st2" d="M176.8,442.4c13.8,0,11.4-24.5,28.9-24.5"/>
		</g>
		<g>
			<path class="st2" d="M685.4,115.4c0,13.8-24.5,11.4-24.5,28.9"/>
			<path class="st2" d="M685.4,57.4c0,13.8-24.5,11.4-24.5,28.9"/>
			<path class="st2" d="M685.4,115.4c0-13.8-24.5-11.4-24.5-28.9"/>
			<path class="st2" d="M661.1,28.5"/>
			<path class="st2" d="M685.4,57.4c0-13.8-24.5-11.4-24.5-28.9"/>
		</g>
		<g>
			<path class="st2" d="M507.8,418.5c0,13.8-24.5,11.4-24.5,28.9"/>
			<path class="st2" d="M507.8,360.7c0,13.8-24.5,11.4-24.5,28.9"/>
			<path class="st2" d="M507.8,418.5c0-13.8-24.5-11.4-24.5-28.9"/>
			<path class="st2" d="M483.2,331.6"/>
			<path class="st2" d="M507.8,360.7c0-13.8-24.5-11.4-24.5-28.9"/>
		</g>
		<g>
			<path class="st2" d="M989.5,903c0,13.8-24.5,11.4-24.5,28.9"/>
			<path class="st2" d="M989.5,845c0,13.8-24.5,11.4-24.5,28.9"/>
			<path class="st2" d="M989.5,903c0-13.8-24.5-11.4-24.5-28.9"/>
			<path class="st2" d="M965.2,816.1"/>
			<path class="st2" d="M989.5,845c0-13.8-24.5-11.4-24.5-28.9"/>
		</g>
		<g>
			<path class="st2" d="M391.7,948.7c0,13.8-24.5,11.4-24.5,28.9"/>
			<path class="st2" d="M391.7,890.7c0,13.8-24.5,11.4-24.5,28.9"/>
			<path class="st2" d="M391.7,948.7c0-13.8-24.5-11.4-24.5-28.9"/>
			<path class="st2" d="M367.2,861.8"/>
			<path class="st2" d="M391.7,890.7c0-13.8-24.5-11.4-24.5-28.9"/>
		</g>
		<line class="st2" x1="750" y1="738.1" x2="821.6" y2="738.1"/>
		<line class="st2" x1="47" y1="531.4" x2="118.5" y2="531.4"/>
		<line class="st2" x1="755.4" y1="199" x2="827" y2="199"/>
		<line class="st2" x1="1037.4" y1="37.5" x2="1108.9" y2="37.5"/>
		<line class="st2" x1="332.1" y1="1103.4" x2="403.7" y2="1103.4"/>
		<line class="st2" x1="515.7" y1="965.2" x2="566.4" y2="914.8"/>
		<line class="st2" x1="97.2" y1="88.1" x2="147.7" y2="37.5"/>
		<line class="st2" x1="1073.1" y1="606.5" x2="1123.7" y2="555.9"/>
	</g>
	<path class="st0" d="M652.7,880.7c-5.8,3.6-13.6,2-17.1-4c-3.6-5.8-2-13.6,4-17.1c5.8-3.6,13.6-2,17.1,4
		C660.3,869.3,658.5,877.1,652.7,880.7z"/>
	<path class="st0" d="M554.2,536.9c-5.8,3.6-13.6,2-17.1-4c-3.6-5.8-2-13.6,4-17.1c5.8-3.6,13.6-2,17.1,4
		C561.8,525.6,560,533.4,554.2,536.9z"/>
	<path class="st0" d="M103.8,642.6c-5.8,3.6-13.6,2-17.1-4c-3.6-5.8-2-13.6,4-17.1c5.8-3.6,13.6-2,17.1,4
		C111.4,631.3,109.6,639,103.8,642.6z"/>
	<path class="st0" d="M231.8,249.2c-5.8,3.6-13.6,2-17.1-4c-3.6-5.8-2-13.6,4-17.1c5.8-3.6,13.6-2,17.1,4
		C239.4,237.9,237.6,245.6,231.8,249.2z"/>
	<path class="st0" d="M919.3,243c-5.8,3.6-13.6,2-17.1-4c-3.6-5.8-2-13.6,4-17.1c5.8-3.6,13.6-2,17.1,4
		C926.9,231.7,925.1,239.4,919.3,243z"/>
	<path class="st0" d="M1095.8,688.3c-5.8,3.6-13.6,2-17.1-4c-3.6-5.8-2-13.6,4-17.1c5.8-3.6,13.6-2,17.1,4
		C1103.6,676.9,1101.8,684.7,1095.8,688.3z"/>
</g>
</svg>
