<?xml version="1.0" encoding="utf-8"?>
<!-- Generator: Adobe Illustrator 25.2.1, SVG Export Plug-In . SVG Version: 6.00 Build 0)  -->
<svg version="1.1" id="Layer_1" xmlns="http://www.w3.org/2000/svg" xmlns:xlink="http://www.w3.org/1999/xlink" x="0px" y="0px"
	 viewBox="0 0 1125.6 1137.1" style="enable-background:new 0 0 1125.6 1137.1;" xml:space="preserve">
<style type="text/css">
	.st0{fill:none;stroke:#F9F2F2;stroke-width:9.9597;stroke-linecap:round;stroke-linejoin:round;stroke-miterlimit:10;}
	.st1{opacity:0.3;}
	.st2{fill:none;stroke:#F9F2F2;stroke-width:1.9919;stroke-miterlimit:10;}
</style>
<g>
	<g>
		<line class="st0" x1="391.1" y1="223.4" x2="360.8" y2="195"/>
		<line class="st0" x1="361.6" y1="224.4" x2="390.1" y2="194"/>
	</g>
	<g>
		<line class="st0" x1="426" y1="660.5" x2="395.7" y2="632"/>
		<line class="st0" x1="396.7" y1="661.5" x2="425.2" y2="631.2"/>
	</g>
	<g>
		<line class="st0" x1="56.3" y1="904.7" x2="26" y2="876.2"/>
		<line class="st0" x1="27" y1="905.7" x2="55.5" y2="875.4"/>
	</g>
	<g>
		<line class="st0" x1="43.1" y1="181.8" x2="12.6" y2="153.3"/>
		<line class="st0" x1="13.6" y1="182.8" x2="42.1" y2="152.3"/>
	</g>
	<g>
		<line class="st0" x1="1123.5" y1="222.7" x2="1093.3" y2="194.2"/>
		<line class="st0" x1="1094" y1="223.6" x2="1122.5" y2="193.2"/>
	</g>
	<g>
		<line class="st0" x1="765.2" y1="377.6" x2="734.7" y2="349.1"/>
		<line class="st0" x1="735.7" y1="378.6" x2="764.2" y2="348.1"/>
	</g>
	<g>
		<line class="st0" x1="913.2" y1="715.9" x2="882.9" y2="687.4"/>
		<line class="st0" x1="883.9" y1="716.8" x2="912.4" y2="686.6"/>
	</g>
	<g>
		<line class="st0" x1="889.7" y1="991.5" x2="859.2" y2="963.1"/>
		<line class="st0" x1="860.2" y1="992.3" x2="888.7" y2="962.1"/>
	</g>
	<polygon class="st0" points="617,269.1 596.1,232.8 575.1,269.1 554.2,305.3 596.1,305.3 637.9,305.1 	"/>
	<polygon class="st0" points="547.7,711.3 526.7,675 506,711.3 485.1,747.5 526.9,747.5 568.6,747.3 	"/>
	<polygon class="st0" points="787.5,847.1 766.6,810.9 745.7,847.1 724.7,883.2 766.6,883.2 808.4,883.2 	"/>
	<polygon class="st0" points="925.3,569.2 936.1,529 895.9,539.8 855.4,550.7 884.9,580.2 914.6,609.7 	"/>
	<polygon class="st0" points="238.3,100.5 249.1,60.3 208.6,71.1 168.4,82 197.9,111.5 227.6,141 	"/>
	<polygon class="st0" points="209.6,973 220.4,932.6 180.2,943.3 139.7,954.3 169.4,983.8 198.9,1013.2 	"/>
	<polygon class="st0" points="967.6,145.8 1003.8,124.8 967.6,103.9 931.5,83 931.5,124.8 931.5,166.7 	"/>
	<polygon class="st0" points="208.6,563.1 244.9,542.2 208.6,521.4 172.6,500.5 172.6,542.4 172.6,584 	"/>
	<path class="st0" d="M687.5,494.7c0,17.5-14.1,31.7-31.7,31.7c-17.5,0-31.7-14.1-31.7-31.7s14.1-31.7,31.7-31.7
		C673.4,463.1,687.5,477.2,687.5,494.7z"/>
	<path class="st0" d="M527.3,141c0,17.5-14.1,31.7-31.7,31.7S464,158.5,464,141s14.1-31.7,31.7-31.7
		C513.2,109.3,527.3,123.5,527.3,141z"/>
	<path class="st0" d="M547.7,1076.6c0,17.5-14.1,31.7-31.7,31.7c-17.5,0-31.7-14.1-31.7-31.7s14.1-31.7,31.7-31.7
		C533.3,1044.7,547.7,1059.1,547.7,1076.6z"/>
	<path class="st0" d="M632.3,1029.2c0-17.5,14.1-31.7,31.7-31.7c17.5,0,31.7,14.1,31.7,31.7"/>
	<path class="st0" d="M379.3,542.4c0-17.5,14.1-31.7,31.7-31.7c17.5,0,31.7,14.1,31.7,31.7"/>
	<path class="st0" d="M45.9,285c0-17.5,14.1-31.7,31.5-31.7s31.5,14.1,31.5,31.7"/>
	<path class="st0" d="M844.9,336.8c-17.5,0-31.7-14.1-31.7-31.5c0-17.3,14.1-31.5,31.7-31.5"/>
	<path class="st0" d="M81.5,1076.4c-17.5,0-31.7-14.1-31.7-31.5s14.1-31.5,31.7-31.5"/>
	<path class="st0" d="M421.8,68.3c-17.5,0-31.7-14.1-31.7-31.5s14.1-31.5,31.7-31.5"/>
	<path class="st0" d="M97.5,742.9c0,17.5-14.1,31.7-31.7,31.7s-31.7-14.1-31.7-31.7s14.1-31.7,31.7-31.7S97.5,725.4,97.5,742.9z"/>
	<path class="st0" d="M1074.9,779.2c0,17.5-14.1,31.7-31.7,31.7c-17.5,0-31.7-14.1-31.7-31.7s14.1-31.7,31.7-31.7
		C1060.8,747.5,1074.9,761.7,1074.9,779.2z"/>
	<rect x="987.3" y="273.6" class="st0" width="63.1" height="63.1"/>
	<rect x="274.4" y="305.3" class="st0" width="63.1" height="63.1"/>
	<rect x="271.2" y="707.9" class="st0" width="63.1" height="63.1"/>
	<rect x="987.3" y="1013.2" class="st0" width="63.1" height="63.1"/>
	<rect x="725.7" y="5.1" class="st0" width="63.1" height="63.1"/>
	<g>
		<path class="st0" d="M635.1,646.3c-13.7,0-11.4-24.5-28.9-24.5"/>
		<path class="st0" d="M693.1,646.3c-13.7,0-11.4-24.5-28.9-24.5"/>
		<path class="st0" d="M635.1,646.3c13.7,0,11.4-24.5,28.9-24.5"/>
		<path class="st0" d="M722,621.8"/>
		<path class="st0" d="M693.1,646.3c13.7,0,11.4-24.5,28.9-24.5"/>
	</g>
	<g>
		<path class="st0" d="M800,1100.9c-13.7,0-11.4-24.5-28.9-24.5"/>
		<path class="st0" d="M858,1100.9c-13.7,0-11.4-24.5-28.9-24.5"/>
		<path class="st0" d="M800,1100.9c13.7,0,11.4-24.5,28.9-24.5"/>
		<path class="st0" d="M886.9,1076.6"/>
		<path class="st0" d="M858,1100.9c13.7,0,11.4-24.5,28.9-24.5"/>
	</g>
	<g>
		<path class="st0" d="M879.1,445.5c-13.7,0-11.4-24.5-28.9-24.5"/>
		<path class="st0" d="M936.9,445.5c-13.7,0-11.4-24.5-28.9-24.5"/>
		<path class="st0" d="M879.1,445.5c13.7,0,11.4-24.5,28.9-24.5"/>
		<path class="st0" d="M966,421"/>
		<path class="st0" d="M936.9,445.5c13.7,0,11.4-24.5,28.9-24.5"/>
	</g>
	<g>
		<path class="st0" d="M73.8,416.1c-13.7,0-11.4-24.5-28.9-24.5"/>
		<path class="st0" d="M131.5,416.1c-13.7,0-11.4-24.5-28.9-24.5"/>
		<path class="st0" d="M73.8,416.1c13.7,0,11.4-24.5,28.9-24.5"/>
		<path class="st0" d="M160.6,391.6"/>
		<path class="st0" d="M131.5,416.1c13.7,0,11.4-24.5,28.9-24.5"/>
	</g>
	<g>
		<path class="st0" d="M639.9,89.2c0,13.7-24.5,11.4-24.5,28.9"/>
		<path class="st0" d="M639.9,31.2c0,13.7-24.5,11.4-24.5,28.9"/>
		<path class="st0" d="M639.9,89.2c0-13.7-24.5-11.4-24.5-28.9"/>
		<path class="st0" d="M615.4,2.3"/>
		<path class="st0" d="M639.9,31.2c0-13.7-24.5-11.4-24.5-28.9"/>
	</g>
	<g>
		<path class="st0" d="M462.4,392.2c0,13.7-24.5,11.4-24.5,28.9"/>
		<path class="st0" d="M462.4,334.2c0,13.7-24.5,11.4-24.5,28.9"/>
		<path class="st0" d="M462.4,392.2c0-13.7-24.5-11.4-24.5-28.9"/>
		<path class="st0" d="M437.9,305.3"/>
		<path class="st0" d="M462.4,334.2c0-13.7-24.5-11.4-24.5-28.9"/>
	</g>
	<g>
		<path class="st0" d="M943.7,876c0,13.7-24.5,11.4-24.5,28.9"/>
		<path class="st0" d="M943.7,818c0,13.7-24.5,11.4-24.5,28.9"/>
		<path class="st0" d="M943.7,876c0-13.7-24.5-11.4-24.5-28.9"/>
		<path class="st0" d="M919.2,789.2"/>
		<path class="st0" d="M943.7,818c0-13.7-24.5-11.4-24.5-28.9"/>
	</g>
	<g>
		<path class="st0" d="M346.5,921.6c0,13.7-24.5,11.4-24.5,28.9"/>
		<path class="st0" d="M346.5,863.7c0,13.7-24.5,11.4-24.5,28.9"/>
		<path class="st0" d="M346.5,921.6c0-13.7-24.5-11.4-24.5-28.9"/>
		<path class="st0" d="M322,834.8"/>
		<path class="st0" d="M346.5,863.7c0-13.7-24.5-11.4-24.5-28.9"/>
	</g>
	<line class="st0" x1="704.4" y1="711.3" x2="775.9" y2="711.3"/>
	<line class="st0" x1="2.1" y1="504.7" x2="73.6" y2="504.7"/>
	<line class="st0" x1="709.8" y1="172.7" x2="781.3" y2="172.7"/>
	<line class="st0" x1="991.5" y1="11.5" x2="1063" y2="11.5"/>
	<line class="st0" x1="286.9" y1="1076.4" x2="358.4" y2="1076.4"/>
	<line class="st0" x1="470.4" y1="938.4" x2="521" y2="887.8"/>
	<line class="st0" x1="52.1" y1="61.9" x2="102.7" y2="11.5"/>
	<line class="st0" x1="1027.1" y1="579.8" x2="1077.7" y2="529.4"/>
	<g class="st1">
		<polygon class="st2" points="662.4,295.6 641.5,259.5 620.6,295.8 599.7,331.8 641.5,331.8 683.3,331.8 		"/>
		<polygon class="st2" points="593.3,737.8 572.2,701.7 551.4,738 530.5,774 572.4,774 614.2,774 		"/>
		<polygon class="st2" points="832.9,873.6 812,837.6 791.1,873.6 770.2,909.9 812,909.9 853.8,909.9 		"/>
		<polygon class="st2" points="970.7,595.9 981.5,555.5 941.3,566.5 900.8,577.2 930.5,606.7 960,636.4 		"/>
		<polygon class="st2" points="283.7,127.2 294.5,86.8 254.2,97.8 213.8,108.5 243.3,138 273,167.7 		"/>
		<polygon class="st2" points="255,999.5 265.8,959.1 225.6,970 185.1,980.8 214.8,1010.3 244.3,1039.9 		"/>
		<polygon class="st2" points="1013.2,172.3 1049.2,151.3 1013.2,130.6 976.9,109.7 976.9,151.5 976.9,193.2 		"/>
		<polygon class="st2" points="254.2,589.8 290.3,568.8 254.1,547.9 218,527 218,568.8 218,610.7 		"/>
		<path class="st2" d="M732.9,521.2c0,17.5-14.1,31.7-31.7,31.7s-31.7-14.1-31.7-31.7c0-17.5,14.1-31.7,31.7-31.7
			S732.9,503.9,732.9,521.2z"/>
		<path class="st2" d="M572.8,167.7c0,17.5-14.1,31.7-31.7,31.7s-31.7-14.1-31.7-31.7s14.1-31.7,31.7-31.7S572.8,150.1,572.8,167.7z
			"/>
		<path class="st2" d="M593.1,1103.1c0,17.5-14.1,31.7-31.7,31.7c-17.5,0-31.7-14.1-31.7-31.7s14.1-31.7,31.7-31.7
			C578.7,1071.4,593.1,1085.6,593.1,1103.1z"/>
		<path class="st2" d="M677.7,1055.7c0-17.5,14.1-31.7,31.7-31.7s31.7,14.1,31.7,31.7"/>
		<path class="st2" d="M424.8,568.8c0-17.5,14.1-31.7,31.7-31.7s31.7,14.1,31.7,31.7"/>
		<path class="st2" d="M91.3,311.5c0-17.5,14.1-31.7,31.5-31.7s31.5,14.1,31.5,31.7"/>
		<path class="st2" d="M890.3,363.5c-17.5,0-31.7-14.1-31.7-31.5c0-17.3,14.1-31.5,31.7-31.5"/>
		<path class="st2" d="M127,1102.9c-17.5,0-31.7-14.1-31.7-31.5s14.1-31.5,31.7-31.5"/>
		<path class="st2" d="M467.2,95c-17.5,0-31.7-14.1-31.7-31.5S449.7,32,467.2,32"/>
		<path class="st2" d="M142.9,769.6c0,17.5-14.1,31.7-31.7,31.7s-31.7-14.1-31.7-31.7c0-17.5,14.1-31.7,31.7-31.7
			C128.8,738,142.9,752.1,142.9,769.6z"/>
		<path class="st2" d="M1120.3,805.7c0,17.5-14.1,31.7-31.7,31.7c-17.5,0-31.7-14.1-31.7-31.7c0-17.5,14.1-31.7,31.7-31.7
			C1106.2,774,1120.3,788.4,1120.3,805.7z"/>
		<rect x="1032.7" y="300.3" class="st2" width="63.1" height="63.1"/>
		<rect x="319.8" y="331.8" class="st2" width="63.1" height="63.1"/>
		<rect x="316.6" y="734.4" class="st2" width="63.1" height="63.1"/>
		<rect x="1032.7" y="1039.9" class="st2" width="63.1" height="63.1"/>
		<rect x="771.2" y="31.8" class="st2" width="63.1" height="63.1"/>
		<g>
			<path class="st2" d="M680.5,672.8c-13.7,0-11.4-24.5-28.9-24.5"/>
			<path class="st2" d="M738.5,672.8c-13.7,0-11.4-24.5-28.9-24.5"/>
			<path class="st2" d="M680.5,672.8c13.7,0,11.4-24.5,28.9-24.5"/>
			<path class="st2" d="M767.4,648.5"/>
			<path class="st2" d="M738.5,672.8c13.7,0,11.4-24.5,28.9-24.5"/>
		</g>
		<g>
			<path class="st2" d="M845.5,1127.6c-13.7,0-11.4-24.5-28.9-24.5"/>
			<path class="st2" d="M903.4,1127.6c-13.7,0-11.4-24.5-28.9-24.5"/>
			<path class="st2" d="M845.5,1127.6c13.7,0,11.4-24.5,28.9-24.5"/>
			<path class="st2" d="M932.3,1103.1"/>
			<path class="st2" d="M903.4,1127.6c13.7,0,11.4-24.5,28.9-24.5"/>
		</g>
		<g>
			<path class="st2" d="M924.5,472c-13.7,0-11.4-24.5-28.9-24.5"/>
			<path class="st2" d="M982.3,472c-13.7,0-11.4-24.5-28.9-24.5"/>
			<path class="st2" d="M924.5,472c13.7,0,11.4-24.5,28.9-24.5"/>
			<path class="st2" d="M1011.4,447.7"/>
			<path class="st2" d="M982.3,472c13.7,0,11.4-24.5,28.9-24.5"/>
		</g>
		<g>
			<path class="st2" d="M119.2,442.6c-13.7,0-11.4-24.5-28.9-24.5"/>
			<path class="st2" d="M177.2,442.6c-13.7,0-11.4-24.5-28.9-24.5"/>
			<path class="st2" d="M119.2,442.6c13.7,0,11.4-24.5,28.9-24.5"/>
			<path class="st2" d="M206,418.3"/>
			<path class="st2" d="M177.2,442.6c13.7,0,11.4-24.5,28.9-24.5"/>
		</g>
		<g>
			<path class="st2" d="M685.3,115.9c0,13.7-24.5,11.4-24.5,28.9"/>
			<path class="st2" d="M685.3,57.9c0,13.7-24.5,11.4-24.5,28.9"/>
			<path class="st2" d="M685.3,115.9c0-13.7-24.5-11.4-24.5-28.9"/>
			<path class="st2" d="M661,29"/>
			<path class="st2" d="M685.3,57.9c0-13.7-24.5-11.4-24.5-28.9"/>
		</g>
		<g>
			<path class="st2" d="M507.8,418.7c0,13.7-24.5,11.4-24.5,28.9"/>
			<path class="st2" d="M507.8,360.9c0,13.7-24.5,11.4-24.5,28.9"/>
			<path class="st2" d="M507.8,418.7c0-13.7-24.5-11.4-24.5-28.9"/>
			<path class="st2" d="M483.3,331.8"/>
			<path class="st2" d="M507.8,360.9c0-13.7-24.5-11.4-24.5-28.9"/>
		</g>
		<g>
			<path class="st2" d="M989.1,902.7c0,13.7-24.5,11.4-24.5,28.9"/>
			<path class="st2" d="M989.1,844.7c0,13.7-24.5,11.4-24.5,28.9"/>
			<path class="st2" d="M989.1,902.7c0-13.7-24.5-11.4-24.5-28.9"/>
			<path class="st2" d="M964.8,815.8"/>
			<path class="st2" d="M989.1,844.7c0-13.7-24.5-11.4-24.5-28.9"/>
		</g>
		<g>
			<path class="st2" d="M391.9,948.3c0,13.7-24.5,11.4-24.5,28.9"/>
			<path class="st2" d="M391.9,890.3c0,13.7-24.5,11.4-24.5,28.9"/>
			<path class="st2" d="M391.9,948.3c0-13.7-24.5-11.4-24.5-28.9"/>
			<path class="st2" d="M367.4,861.5"/>
			<path class="st2" d="M391.9,890.3c0-13.7-24.5-11.4-24.5-28.9"/>
		</g>
		<line class="st2" x1="749.8" y1="738" x2="821.4" y2="738"/>
		<line class="st2" x1="47.5" y1="531.4" x2="119" y2="531.4"/>
		<line class="st2" x1="755.2" y1="199.3" x2="826.7" y2="199.3"/>
		<line class="st2" x1="1036.9" y1="38" x2="1108.4" y2="38"/>
		<line class="st2" x1="332.3" y1="1102.9" x2="403.8" y2="1102.9"/>
		<line class="st2" x1="515.8" y1="964.8" x2="566.4" y2="914.4"/>
		<line class="st2" x1="97.7" y1="88.6" x2="148.1" y2="38"/>
		<line class="st2" x1="1072.5" y1="606.5" x2="1123.1" y2="555.9"/>
	</g>
	<path class="st0" d="M652.6,880.4c-5.8,3.6-13.5,2-17.1-4c-3.6-5.8-2-13.5,4-17.1c5.8-3.6,13.5-2,17.1,4
		C660.2,869,658.4,876.8,652.6,880.4z"/>
	<path class="st0" d="M554.2,537c-5.8,3.6-13.5,2-17.1-4c-3.6-5.8-2-13.5,4-17.1c5.8-3.6,13.5-2,17.1,4
		C561.8,525.6,560,533.4,554.2,537z"/>
	<path class="st0" d="M104.3,642.6c-5.8,3.6-13.5,2-17.1-4c-3.6-5.8-2-13.5,4-17.1c5.8-3.6,13.5-2,17.1,4
		C111.8,631.2,110,639,104.3,642.6z"/>
	<path class="st0" d="M232.1,249.5c-5.8,3.6-13.5,2-17.1-4c-3.6-5.8-2-13.5,4-17.1c5.8-3.6,13.5-2,17.1,4
		C239.7,238.2,237.9,246,232.1,249.5z"/>
	<path class="st0" d="M919,243.4c-5.8,3.6-13.5,2-17.1-4c-3.6-5.8-2-13.5,4-17.1c5.8-3.6,13.5-2,17.1,4
		C926.5,232,924.7,239.8,919,243.4z"/>
	<path class="st0" d="M1095.2,688.2c-5.8,3.6-13.5,2-17.1-4c-3.6-5.8-2-13.5,4-17.1c5.8-3.6,13.5-2,17.1,4
		C1103,676.8,1101.2,684.6,1095.2,688.2z"/>
</g>
</svg>
