<?xml version="1.0" encoding="utf-8"?>
<!-- Generator: Adobe Illustrator 25.2.1, SVG Export Plug-In . SVG Version: 6.00 Build 0)  -->
<svg version="1.1" id="Layer_1" xmlns="http://www.w3.org/2000/svg" xmlns:xlink="http://www.w3.org/1999/xlink" x="0px" y="0px"
	 viewBox="0 0 1000 1000" style="enable-background:new 0 0 1000 1000;" xml:space="preserve">
<style type="text/css">
	.st0{fill:#FFFFFF;stroke:#FFFFFF;stroke-miterlimit:10;}
</style>
<path class="st0" d="M4,500c0-136.8,55.6-260.8,145.4-350.6l-5.8-5.8C97.3,189.9,61,243.8,35.6,303.8C9.3,366-4,432-4,500
	S9.3,634,35.6,696.2c25.4,60,61.7,113.9,108,160.2l5.8-5.8C59.6,760.8,4,636.8,4,500z"/>
<path class="st0" d="M500,996c-136.8,0-260.8-55.6-350.6-145.4l-5.8,5.8c46.3,46.3,100.2,82.6,160.2,108
	C366,990.7,432,1004,500,1004s134-13.3,196.2-39.6c60-25.4,113.9-61.7,160.2-108l-5.8-5.8C760.8,940.4,636.8,996,500,996z"/>
<path class="st0" d="M696.2,35.6C634,9.3,568-4,500-4S366,9.3,303.8,35.6c-60,25.4-113.9,61.7-160.2,108v0l5.8,5.8
	C239.2,59.6,363.2,4,500,4s260.8,55.6,350.6,145.4l5.8-5.8C810.1,97.3,756.2,61,696.2,35.6z"/>
<path class="st0" d="M964.4,303.8c-25.4-60-61.7-113.9-108-160.2h0l-5.8,5.8C940.4,239.2,996,363.2,996,500s-55.6,260.8-145.4,350.6
	l5.8,5.8c46.3-46.3,82.6-100.2,108-160.2C990.7,634,1004,568,1004,500S990.7,366,964.4,303.8z"/>
<path class="st0" d="M70.6,681.4C46.3,623.9,34,562.9,34,500s12.3-123.9,36.6-181.4c23.5-55.5,57.1-105.3,99.9-148.1l-5.7-5.7
	c-43.5,43.6-77.7,94.3-101.6,150.7C38.5,373.9,26,436,26,500s12.5,126.1,37.2,184.5c23.9,56.5,58.1,107.2,101.6,150.7l5.7-5.7
	C127.7,786.7,94.1,736.9,70.6,681.4z"/>
<path class="st0" d="M681.4,929.4C623.9,953.7,562.9,966,500,966s-123.9-12.3-181.4-36.6c-55.5-23.5-105.3-57.1-148.1-99.9l-5.7,5.7
	c43.6,43.5,94.3,77.7,150.7,101.6C373.9,961.5,436,974,500,974s126.1-12.5,184.5-37.2c56.5-23.9,107.2-58.1,150.7-101.6l-5.7-5.7
	C786.7,872.3,736.9,905.9,681.4,929.4z"/>
<path class="st0" d="M684.5,63.2C626.1,38.5,564,26,500,26S373.9,38.5,315.5,63.2C259,87.1,208.3,121.3,164.8,164.8l5.7,5.7
	c42.8-42.8,92.6-76.4,148.1-99.9C376.1,46.3,437.1,34,500,34s123.9,12.3,181.4,36.6c55.5,23.5,105.3,57.1,148.1,99.9l5.7-5.7
	C791.6,121.3,740.9,87.1,684.5,63.2z"/>
<path class="st0" d="M835.2,164.8l-5.7,5.7c42.8,42.8,76.4,92.6,99.9,148.1C953.7,376.1,966,437.1,966,500s-12.3,123.9-36.6,181.4
	c-23.5,55.5-57.1,105.3-99.9,148.1l5.7,5.7c43.5-43.6,77.7-94.3,101.6-150.7C961.5,626.1,974,564,974,500s-12.5-126.1-37.2-184.5
	C912.9,259,878.7,208.3,835.2,164.8z"/>
<g>
	<path class="st0" d="M594.6,407.7c0.5-1.2,1-2.5,1.4-3.7l-33.9,33.9c1.9-0.7,3.8-1.4,5.6-2.3C579.7,429.8,589.3,419.9,594.6,407.7z
		"/>
	<path class="st0" d="M505.7,440.9L505.7,440.9l38.3,0c6.3,0,12.3-1,18.2-3.1L596,404c2-5.8,3.1-11.9,3.1-18.2
		c0-30.4-24.7-55.2-55.1-55.2H395.7l-92.7-93h240.8c57.5,0,109.5,33.6,133.6,85l5.9-5.9c-25.9-52.7-80-87-139.7-87h-260l108.7,109
		h151.7c26,0,47.1,21.2,47.1,47.2c0,6.5-1.3,12.8-3.9,18.7c-4.6,10.5-12.8,18.9-23,23.8c-6.4,3-13.3,4.6-20.4,4.6h-57.4l40.2,40.4
		l5.7-5.7L505.7,440.9z"/>
	<path class="st0" d="M683.4,316.6l-5.9,5.9c2,4.3,3.9,8.8,5.5,13.3c5.7,16,8.6,32.8,8.6,49.9c0,17.2-2.9,33.9-8.6,49.9
		c-5.2,14.8-12.8,28.6-22.5,41.1c-7,9.1-15.2,17.4-24.4,24.8c-13.5,10.8-28.7,19.2-45.2,24.7l-58.4-58.7l-5.7,5.7l61.9,62.2l2.3-0.8
		c18.3-5.8,35.2-14.9,50.1-26.9c9.6-7.8,18.3-16.6,25.7-26.2c10.2-13.1,18.2-27.7,23.7-43.3c6-16.8,9-34.5,9-52.5s-3-35.7-9-52.5
		C688.4,327.6,686,322,683.4,316.6z"/>
</g>
<g>
	<path class="st0" d="M660.7,339.3l-6.2,6.2c0.1,0.1,0.1,0.3,0.2,0.4c4.5,12.7,6.8,26.1,6.8,39.8s-2.3,27.1-6.8,39.8
		c-4.2,11.8-10.2,22.8-17.9,32.7c-5.6,7.3-12.2,14-19.6,19.9c-6,4.8-12.5,9.1-19.3,12.6l-24.9-25c2.6-0.9,5.2-2,7.8-3.2
		c18.5-8.9,33.2-24.1,41.4-42.9c4.6-10.7,7-22.1,7-33.9c0-4.7-0.4-9.3-1.1-13.8l-7.2,7.2c0.2,2.2,0.3,4.4,0.3,6.7
		c0,10.6-2.2,21-6.4,30.7c-7.4,17-20.8,30.8-37.5,38.8c-4.1,2-8.4,3.6-12.8,4.8l-6.6,1.8l38.4,38.6l2.6-1.1
		c8.3-4.1,16.2-9.1,23.4-14.9c7.8-6.3,14.9-13.4,20.9-21.2c8.2-10.6,14.7-22.4,19.1-35c4.8-13.6,7.3-27.9,7.3-42.5
		c0-14.6-2.5-28.9-7.3-42.5C661.7,342,661.2,340.7,660.7,339.3z"/>
	<path class="st0" d="M544,300.6H408.2l-32.9-33h168.4c49.5,0,94,31.3,110.7,78l6.2-6.2c-18.9-47.8-65.2-79.6-116.9-79.6H356
		l48.9,49H544c40.2,0,73.4,31,76.8,70.5l7.2-7.2C621.4,331.6,586.2,300.6,544,300.6z"/>
</g>
<g>
	<g>
		<polygon class="st0" points="237.2,414.9 368.3,414.9 476.5,523.5 482.2,517.8 372.9,408.1 371.7,406.9 218,406.9 405.2,594.8 
			410.9,589.1 		"/>
		<polygon class="st0" points="482.2,517.8 476.5,523.5 708.7,756.4 762.8,810.7 631.7,810.7 410.9,589.1 405.2,594.8 627.1,817.5 
			628.3,818.7 782,818.7 714.4,750.8 		"/>
	</g>
	<g>
		<polygon class="st0" points="309.5,444.9 355.9,444.9 455.3,544.7 461,539 360.4,438.1 359.2,436.9 290.2,436.9 426.4,573.6 
			432.1,567.9 		"/>
		<polygon class="st0" points="455.3,544.7 690.5,780.7 644.1,780.7 432.1,567.9 426.4,573.6 639.6,787.5 640.8,788.7 709.8,788.7 
			461,539 		"/>
	</g>
</g>
</svg>
