<svg id="Layer_1" data-name="Layer 1" xmlns="http://www.w3.org/2000/svg" xmlns:xlink="http://www.w3.org/1999/xlink" viewBox="0 0 1000 1000"><defs><style>.cls-1{fill:url(#radial-gradient);}.cls-2{fill:#035381;}.cls-3{fill:#383838;}.cls-4{fill:#e14756;}.cls-5{fill:#fc8f2b;}.cls-6{fill:#62cfd8;}.cls-7{fill:#ff3e5d;}.cls-8{fill:#472d7f;}.cls-9{fill:#dd2eaf;}.cls-10{fill:#36b0e2;}</style><radialGradient id="radial-gradient" cx="500" cy="500" r="480.56" gradientUnits="userSpaceOnUse"><stop offset="0" stop-color="#f5f5f6"/><stop offset="0.45" stop-color="#f9f9fa"/><stop offset="0.72" stop-color="#fff"/></radialGradient></defs><path class="cls-1" d="M980.56,500c0,265.41-215.14,480.57-480.55,480.57S19.43,765.41,19.43,500,234.59,19.43,500,19.43,980.56,234.59,980.56,500Z"/><path class="cls-2" d="M500,836.82V919A415.3,415.3,0,0,1,210.72,802.31l58.2-58.2A333.69,333.69,0,0,0,500,836.82Z"/><polygon class="cls-3" points="639.98 640.47 506.27 506.76 500 513.04 500 500.49 412.15 412.65 412.91 412.65 500 500.05 506.49 506.55 506.6 506.65 639.98 640.47"/><polygon class="cls-4" points="500 244.1 500 340.06 435.85 340.06 340.21 244.1 500 244.1"/><path class="cls-4" d="M500,81v82.22a334.57,334.57,0,0,0-104.61,16.66,316.42,316.42,0,0,0-34.51,13.63,324.58,324.58,0,0,0-45.76,25.42l-59-59.06a406.18,406.18,0,0,1,43.59-27.7c10.5-5.73,21.21-11,32.24-15.9A414.63,414.63,0,0,1,500,81Z"/><path class="cls-5" d="M917.57,500c0,2.27,0,4.43-.1,6.7h-81.9c.11-2.27.11-4.43.11-6.7a336,336,0,0,0-91.52-231.08l58.2-58.09A418.85,418.85,0,0,1,917.57,500Z"/><path class="cls-6" d="M917.47,506.65a418.75,418.75,0,0,1-35.05,162c-4.87,11-10.07,21.74-15.91,32.35A404.26,404.26,0,0,1,839,744.65l-58.85-59.06a345.28,345.28,0,0,0,25.32-46A353.1,353.1,0,0,0,819,605a335.73,335.73,0,0,0,16.55-98.34Z"/><path class="cls-6" d="M661.73,506.65a144.71,144.71,0,0,1-40,20l-19.91-20Z"/><path class="cls-3" d="M262.43,262.06l-.43.43L243.61,244.1h.86Z"/><polygon class="cls-7" points="575.62 437.42 554.2 458.84 532.77 437.42 575.62 437.42"/><path class="cls-7" d="M700.56,312.47l-74,74a48.61,48.61,0,0,0-48.36-46.4H500v-96h78.21A143.64,143.64,0,0,1,700.56,312.47Z"/><path class="cls-5" d="M722.31,388.74A145.16,145.16,0,0,1,714,437.42a142.81,142.81,0,0,1-22,40,146.1,146.1,0,0,1-23.91,24.34c-2.06,1.62-4.22,3.24-6.38,4.86H601.79L554.2,458.84l21.42-21.42h2.59a47.44,47.44,0,0,0,21-4.87A48.34,48.34,0,0,0,622.78,408a49.73,49.73,0,0,0,3.9-19.25,15.83,15.83,0,0,0-.11-2.28l74-74A132.67,132.67,0,0,1,714,340.06,145.07,145.07,0,0,1,722.31,388.74Z"/><path class="cls-8" d="M268.92,744.11l-58.2,58.2A418.46,418.46,0,0,1,82.53,506.65h82A336.12,336.12,0,0,0,268.92,744.11Z"/><polygon class="cls-8" points="500 506.65 500 513.04 438.77 574.27 371.37 506.65 500 506.65"/><path class="cls-7" d="M802.36,210.67v.11l-58.2,58.09A334.17,334.17,0,0,0,500,163.18V81C618.89,81,726.09,130.83,802.36,210.67Z"/><polygon class="cls-2" points="500 513.04 500 635.71 438.77 574.27 500 513.04"/><polygon class="cls-9" points="500 500.49 500 506.65 371.37 506.65 277.69 412.65 412.15 412.65 500 500.49"/><path class="cls-9" d="M243.61,244.1,262,262.49a340.86,340.86,0,0,0-57.23,77.24l-60-60a424.89,424.89,0,0,1,24.56-35.59Z"/><path class="cls-9" d="M164.42,500c0,2.27,0,4.54.11,6.7h-82c-.11-2.27-.11-4.43-.11-6.7a421.42,421.42,0,0,1,9.09-87.3h84.27A336.22,336.22,0,0,0,164.42,500Z"/><path class="cls-10" d="M795.33,796.25C719.71,872.09,615.32,919,500,919V836.82a332.44,332.44,0,0,0,159.89-40.67L500,635.71V513l6.27-6.28L640,640.47l97.37,97.69Z"/></svg>