<?xml version="1.0" encoding="utf-8"?>
<!-- Generator: Adobe Illustrator 24.1.1, SVG Export Plug-In . SVG Version: 6.00 Build 0)  -->
<svg version="1.1" id="Layer_1" xmlns="http://www.w3.org/2000/svg" xmlns:xlink="http://www.w3.org/1999/xlink" x="0px" y="0px"
	 viewBox="0 0 1000 1000" style="enable-background:new 0 0 1000 1000;" xml:space="preserve">
<style type="text/css">
	.st0{fill:#FFFFFF;}
	.st1{fill:#096ABA;}
</style>
<circle class="st0" cx="500" cy="500" r="500"/>
<g>
	<path class="st1" d="M566,431.9c-6.7,3.2-14.2,5-22.1,5h-47.8l93.6,94c17.9-5.7,34.4-14.6,48.8-26.2c9.3-7.5,17.8-16.1,25.1-25.5
		c9.8-12.6,17.7-26.9,23.1-42.2c5.7-16,8.8-33.2,8.8-51.2c0-18-3.1-35.2-8.8-51.2c-20.9-58.9-77-101-142.9-101H293.4l100.7,101
		h149.9c28.2,0,51.1,22.9,51.1,51.2c0,7.2-1.5,14.1-4.2,20.3C586,417.3,577.1,426.6,566,431.9z"/>
	<g>
		<polygon class="st1" points="772.4,814.7 630,814.7 227.6,410.9 370,410.9 711.5,753.6 		"/>
	</g>
</g>
</svg>
